<svg id="Calque_1" data-name="Calque 1" xmlns="http://www.w3.org/2000/svg" viewBox="0 0 602.39 285.792"><path d="M160.676,187.635H91.91V109.919a7.783,7.783,0,0,0-15.565,0v85.139a6.161,6.161,0,0,0,6.153,6.154h78.178a6.789,6.789,0,1,0,0-13.577Z" style="fill:#fff"/><path d="M212.969,102.137a7.791,7.791,0,0,0-7.781,7.782V193.43a7.782,7.782,0,1,0,15.564,0V109.919A7.792,7.792,0,0,0,212.969,102.137Z" style="fill:#fff"/><path d="M315.965,113.725h11.927c5.91,0,10.929.135,14.92.4a29.043,29.043,0,0,1,9.225,1.845,8.345,8.345,0,0,1,4.434,3.9,17.928,17.928,0,0,1,1.42,7.936,6.658,6.658,0,0,0,6.65,6.651H366.8a6.658,6.658,0,0,0,6.651-6.651,43.073,43.073,0,0,0-.781-8.5,20.46,20.46,0,0,0-2.9-7.187h0a19.1,19.1,0,0,0-5.625-5.5,31.982,31.982,0,0,0-8.533-3.7,66.867,66.867,0,0,0-11.883-2.111c-4.506-.439-9.834-.662-15.837-.662H315.965c-7.317,0-13.775.275-19.195.817a86.474,86.474,0,0,0-14.129,2.448,36.292,36.292,0,0,0-9.915,4.17,22.376,22.376,0,0,0-6.281,5.859,19.915,19.915,0,0,0-3.18,7.413,41.591,41.591,0,0,0-.815,8.451,58.14,58.14,0,0,0,.514,7.983,20.077,20.077,0,0,0,2.361,7.136,18.145,18.145,0,0,0,5.343,5.777,29.736,29.736,0,0,0,9,4.056,78.656,78.656,0,0,0,13.4,2.39,188.35,188.35,0,0,0,18.921.818h16.4a121.658,121.658,0,0,1,15.845.829,24.313,24.313,0,0,1,8.861,2.61,8.022,8.022,0,0,1,3.74,4.4,24.922,24.922,0,0,1,1.054,7.861,18.273,18.273,0,0,1-1.5,7.828,10.873,10.873,0,0,1-4.991,4.9,32.416,32.416,0,0,1-10.4,2.992,122.505,122.505,0,0,1-17.075.986h-15.9c-5.9,0-10.91-.137-14.881-.406a28.688,28.688,0,0,1-9.193-1.878,8.4,8.4,0,0,1-4.439-3.975,18.515,18.515,0,0,1-1.422-8.082,6.659,6.659,0,0,0-6.652-6.651h-2.26a6.659,6.659,0,0,0-6.652,6.651,43.527,43.527,0,0,0,.781,8.535,20.427,20.427,0,0,0,2.9,7.217,19.879,19.879,0,0,0,5.568,5.546,30.137,30.137,0,0,0,8.528,3.781,68.824,68.824,0,0,0,11.877,2.143c4.513.46,9.843.694,15.844.694h15.9a149.352,149.352,0,0,0,17.585-.911,69.021,69.021,0,0,0,13.053-2.707,33.5,33.5,0,0,0,9.2-4.461,21.727,21.727,0,0,0,8.883-13.7,42.6,42.6,0,0,0,.813-8.5,67.564,67.564,0,0,0-.481-8.334,22.062,22.062,0,0,0-2.205-7.38,19.116,19.116,0,0,0-4.868-5.965,25.4,25.4,0,0,0-8.266-4.292,62.544,62.544,0,0,0-12.195-2.481,151.736,151.736,0,0,0-17.048-.824h-16.4c-5.274,0-9.847-.113-13.593-.336a69.632,69.632,0,0,1-9.471-1.118,23.708,23.708,0,0,1-5.93-1.886,8.688,8.688,0,0,1-3.122-2.531,8.27,8.27,0,0,1-1.449-3.506,29.863,29.863,0,0,1-.406-5.207,16.414,16.414,0,0,1,1.538-7.556,10.5,10.5,0,0,1,5.335-4.517,40.374,40.374,0,0,1,11.638-2.68A186.734,186.734,0,0,1,315.965,113.725Z" style="fill:#fff"/><path d="M509.291,180.052l-1.153.654,1.153-.654,9.917,17.484a7.268,7.268,0,0,0,6.31,3.676,7.257,7.257,0,0,0,6.308-10.843l-45.413-79.863a16.55,16.55,0,0,0-28.761-.021L412.079,190.36a7.257,7.257,0,0,0,6.3,10.852h1.285a7.272,7.272,0,0,0,6.305-3.665l9.962-17.5,36.745-64.529Z" style="fill:#fff"/><path d="M224.832,73.824,236.271,65a3.69,3.69,0,0,0-4.9-5.519L220.322,68A12.673,12.673,0,0,1,224.832,73.824Z" style="fill:#fff"/><path d="M205.76,68l-11.05-8.521A3.69,3.69,0,0,0,189.81,65l11.439,8.828A12.678,12.678,0,0,1,205.76,68Z" style="fill:#fff"/><path d="M216.733,66.224l0-19.136a3.69,3.69,0,0,0-7.38,0V66.224a12.583,12.583,0,0,1,7.385,0Z" style="fill:#fff"/><path d="M200.621,76.1H78.065a3.126,3.126,0,0,0,0,6.251H201.1a12.249,12.249,0,0,1-.476-6.251Z" style="fill:#fff"/><path d="M531.068,76.1H225.46a12.249,12.249,0,0,1-.476,6.251H531.068a3.126,3.126,0,0,0,0-6.251Z" style="fill:#fff"/><path d="M213.041,72.28a6.19,6.19,0,1,0,6.19,6.19A6.19,6.19,0,0,0,213.041,72.28Z" style="fill:#fff"/><path d="M73.816,230.248h1.616v9.906h6.126v1.407H73.816Z" style="fill:#fff"/><path d="M90.672,238.732H84.661l-1.245,2.829H81.751l5.123-11.313h1.6l5.14,11.313h-1.7Zm-.565-1.293L87.666,231.9l-2.44,5.543Z" style="fill:#fff"/><path d="M96.127,241.294a5.056,5.056,0,0,1-1.866-1.026l.6-1.261a4.967,4.967,0,0,0,1.657.946,6.092,6.092,0,0,0,2.077.363,3.745,3.745,0,0,0,2.1-.476,1.47,1.47,0,0,0,.7-1.269,1.25,1.25,0,0,0-.379-.946,2.551,2.551,0,0,0-.937-.557q-.558-.2-1.577-.436a16.291,16.291,0,0,1-2.06-.615,3.4,3.4,0,0,1-1.341-.945,2.523,2.523,0,0,1-.558-1.721,2.912,2.912,0,0,1,.477-1.633,3.277,3.277,0,0,1,1.446-1.164,5.884,5.884,0,0,1,2.408-.436,7.643,7.643,0,0,1,1.972.259,5.256,5.256,0,0,1,1.665.743l-.534,1.293a5.791,5.791,0,0,0-1.519-.686,5.642,5.642,0,0,0-1.584-.235,3.486,3.486,0,0,0-2.06.5,1.535,1.535,0,0,0-.687,1.293,1.234,1.234,0,0,0,.388.945,2.694,2.694,0,0,0,.962.566,14.712,14.712,0,0,0,1.559.428,15.84,15.84,0,0,1,2.053.615,3.448,3.448,0,0,1,1.333.937,2.47,2.47,0,0,1,.557,1.7,2.89,2.89,0,0,1-.484,1.624,3.246,3.246,0,0,1-1.471,1.163,6.076,6.076,0,0,1-2.424.429A7.741,7.741,0,0,1,96.127,241.294Z" style="fill:#fff"/><path d="M113.541,240.154v1.407h-8.21V230.248h7.984v1.406h-6.368v3.474h5.673V236.5h-5.673v3.652Z" style="fill:#fff"/><path d="M123.722,241.561l-2.44-3.475c-.3.022-.539.032-.711.032h-2.8v3.443h-1.616V230.248h4.412a5.245,5.245,0,0,1,3.459,1.05,3.565,3.565,0,0,1,1.26,2.893,3.782,3.782,0,0,1-.646,2.23,3.65,3.65,0,0,1-1.843,1.341l2.683,3.8Zm-.856-5.479a2.308,2.308,0,0,0,.808-1.891,2.284,2.284,0,0,0-.808-1.883,3.651,3.651,0,0,0-2.344-.654h-2.747v5.091h2.747A3.616,3.616,0,0,0,122.866,236.082Z" style="fill:#fff"/><path d="M132.256,230.248h1.616v11.313h-1.616Z" style="fill:#fff"/><path d="M139.286,240.938a5.55,5.55,0,0,1-2.157-2.076,5.964,5.964,0,0,1,0-5.915,5.548,5.548,0,0,1,2.157-2.078,6.685,6.685,0,0,1,6.157,0,5.515,5.515,0,0,1,2.15,2.069,6.056,6.056,0,0,1,0,5.932,5.513,5.513,0,0,1-2.15,2.068,6.677,6.677,0,0,1-6.157,0Zm5.325-1.252a4.15,4.15,0,0,0,1.568-1.56,4.588,4.588,0,0,0,0-4.444,4.15,4.15,0,0,0-1.568-1.56,4.445,4.445,0,0,0-2.238-.566,4.535,4.535,0,0,0-2.255.566,4.106,4.106,0,0,0-1.583,1.56,4.588,4.588,0,0,0,0,4.444,4.106,4.106,0,0,0,1.583,1.56,4.535,4.535,0,0,0,2.255.565A4.444,4.444,0,0,0,144.611,239.686Z" style="fill:#fff"/><path d="M160.57,230.248v11.313h-1.325l-6.788-8.437v8.437h-1.616V230.248h1.325l6.788,8.436v-8.436Z" style="fill:#fff"/><path d="M163.965,230.248h1.616v11.313h-1.616Z" style="fill:#fff"/><path d="M169.807,241.294a5.056,5.056,0,0,1-1.866-1.026l.6-1.261a4.967,4.967,0,0,0,1.657.946,6.092,6.092,0,0,0,2.077.363,3.745,3.745,0,0,0,2.1-.476,1.47,1.47,0,0,0,.695-1.269,1.25,1.25,0,0,0-.379-.946,2.551,2.551,0,0,0-.937-.557q-.558-.2-1.577-.436a16.291,16.291,0,0,1-2.06-.615,3.4,3.4,0,0,1-1.341-.945,2.523,2.523,0,0,1-.558-1.721,2.912,2.912,0,0,1,.477-1.633,3.277,3.277,0,0,1,1.446-1.164,5.884,5.884,0,0,1,2.408-.436,7.643,7.643,0,0,1,1.972.259,5.256,5.256,0,0,1,1.665.743l-.534,1.293a5.791,5.791,0,0,0-1.519-.686,5.642,5.642,0,0,0-1.584-.235,3.486,3.486,0,0,0-2.06.5,1.535,1.535,0,0,0-.687,1.293,1.236,1.236,0,0,0,.387.945,2.708,2.708,0,0,0,.963.566,14.712,14.712,0,0,0,1.559.428,15.84,15.84,0,0,1,2.053.615,3.448,3.448,0,0,1,1.333.937,2.47,2.47,0,0,1,.557,1.7,2.89,2.89,0,0,1-.484,1.624,3.246,3.246,0,0,1-1.471,1.163,6.079,6.079,0,0,1-2.424.429A7.741,7.741,0,0,1,169.807,241.294Z" style="fill:#fff"/><path d="M186.218,238.732h-6.012l-1.244,2.829H177.3l5.123-11.313h1.6l5.14,11.313h-1.7Zm-.565-1.293-2.441-5.543-2.44,5.543Z" style="fill:#fff"/><path d="M192.522,231.654h-3.879v-1.406H198v1.406h-3.879v9.907h-1.6Z" style="fill:#fff"/><path d="M199.762,230.248h1.616v11.313h-1.616Z" style="fill:#fff"/><path d="M206.792,240.938a5.55,5.55,0,0,1-2.157-2.076,5.964,5.964,0,0,1,0-5.915,5.548,5.548,0,0,1,2.157-2.078,6.685,6.685,0,0,1,6.157,0,5.508,5.508,0,0,1,2.15,2.069,6.056,6.056,0,0,1,0,5.932,5.506,5.506,0,0,1-2.15,2.068,6.677,6.677,0,0,1-6.157,0Zm5.325-1.252a4.15,4.15,0,0,0,1.568-1.56,4.588,4.588,0,0,0,0-4.444,4.15,4.15,0,0,0-1.568-1.56,4.445,4.445,0,0,0-2.238-.566,4.538,4.538,0,0,0-2.255.566,4.112,4.112,0,0,0-1.583,1.56,4.588,4.588,0,0,0,0,4.444,4.112,4.112,0,0,0,1.583,1.56,4.537,4.537,0,0,0,2.255.565A4.444,4.444,0,0,0,212.117,239.686Z" style="fill:#fff"/><path d="M228.076,230.248v11.313h-1.325l-6.788-8.437v8.437h-1.616V230.248h1.325l6.788,8.436v-8.436Z" style="fill:#fff"/><path d="M243.026,238.732h-6.012l-1.245,2.829H234.1l5.124-11.313h1.6l5.14,11.313h-1.7Zm-.566-1.293-2.44-5.543-2.441,5.543Z" style="fill:#fff"/><path d="M257.377,230.248v11.313h-1.325l-6.788-8.437v8.437h-1.616V230.248h1.325l6.788,8.436v-8.436Z" style="fill:#fff"/><path d="M260.771,230.248h4.768a6.883,6.883,0,0,1,3.184.711,5.225,5.225,0,0,1,2.157,2,6.053,6.053,0,0,1,0,5.9,5.234,5.234,0,0,1-2.157,2,6.9,6.9,0,0,1-3.184.711h-4.768Zm4.67,9.906a5.229,5.229,0,0,0,2.417-.533,3.845,3.845,0,0,0,1.608-1.5,4.652,4.652,0,0,0,0-4.444,3.851,3.851,0,0,0-1.608-1.495,5.241,5.241,0,0,0-2.417-.533h-3.054v8.5Z" style="fill:#fff"/><path d="M279.3,241.294a5.056,5.056,0,0,1-1.866-1.026l.6-1.261a4.967,4.967,0,0,0,1.657.946,6.092,6.092,0,0,0,2.077.363,3.745,3.745,0,0,0,2.1-.476,1.471,1.471,0,0,0,.7-1.269,1.251,1.251,0,0,0-.38-.946,2.551,2.551,0,0,0-.937-.557q-.558-.2-1.577-.436a16.291,16.291,0,0,1-2.06-.615,3.4,3.4,0,0,1-1.341-.945,2.523,2.523,0,0,1-.558-1.721,2.912,2.912,0,0,1,.477-1.633,3.277,3.277,0,0,1,1.446-1.164,5.884,5.884,0,0,1,2.408-.436,7.643,7.643,0,0,1,1.972.259,5.256,5.256,0,0,1,1.665.743l-.534,1.293a5.791,5.791,0,0,0-1.519-.686,5.642,5.642,0,0,0-1.584-.235,3.486,3.486,0,0,0-2.06.5,1.535,1.535,0,0,0-.687,1.293,1.237,1.237,0,0,0,.388.945,2.694,2.694,0,0,0,.962.566,14.712,14.712,0,0,0,1.559.428,15.84,15.84,0,0,1,2.053.615,3.448,3.448,0,0,1,1.333.937,2.47,2.47,0,0,1,.557,1.7,2.89,2.89,0,0,1-.484,1.624,3.246,3.246,0,0,1-1.471,1.163,6.076,6.076,0,0,1-2.424.429A7.741,7.741,0,0,1,279.3,241.294Z" style="fill:#fff"/><path d="M296.375,231.3a3.951,3.951,0,0,1,0,5.786,5.245,5.245,0,0,1-3.459,1.05h-2.8v3.427H288.5V230.248h4.412A5.245,5.245,0,0,1,296.375,231.3Zm-1.164,4.776a2.6,2.6,0,0,0,0-3.766,3.648,3.648,0,0,0-2.343-.654H290.12v5.074h2.748A3.648,3.648,0,0,0,295.211,236.074Z" style="fill:#fff"/><path d="M308.22,240.154v1.407h-8.21V230.248H308v1.406h-6.369v3.474H307.3V236.5h-5.673v3.652Z" style="fill:#fff"/><path d="M312.788,240.938a5.528,5.528,0,0,1-2.143-2.068,6.063,6.063,0,0,1,0-5.932,5.526,5.526,0,0,1,2.149-2.069,6.312,6.312,0,0,1,3.072-.751,6.394,6.394,0,0,1,2.424.445,4.957,4.957,0,0,1,1.874,1.317l-1.05,1.018a4.216,4.216,0,0,0-3.184-1.342,4.609,4.609,0,0,0-2.278.566,4.1,4.1,0,0,0-1.592,1.56,4.595,4.595,0,0,0,0,4.444,4.1,4.1,0,0,0,1.592,1.56,4.609,4.609,0,0,0,2.278.565,4.22,4.22,0,0,0,3.184-1.357l1.05,1.018a5.009,5.009,0,0,1-1.883,1.325,6.356,6.356,0,0,1-2.432.453A6.239,6.239,0,0,1,312.788,240.938Z" style="fill:#fff"/><path d="M324.593,231.654h-3.88v-1.406h9.359v1.406h-3.88v9.907h-1.6Z" style="fill:#fff"/><path d="M339.4,241.561l-2.44-3.475c-.3.022-.538.032-.711.032h-2.8v3.443h-1.616V230.248h4.412a5.239,5.239,0,0,1,3.458,1.05,3.564,3.564,0,0,1,1.262,2.893,3.782,3.782,0,0,1-.647,2.23,3.655,3.655,0,0,1-1.843,1.341l2.683,3.8Zm-.856-5.479a2.306,2.306,0,0,0,.808-1.891,2.281,2.281,0,0,0-.808-1.883,3.646,3.646,0,0,0-2.343-.654h-2.748v5.091H336.2A3.611,3.611,0,0,0,338.54,236.082Z" style="fill:#fff"/><path d="M345.6,240.938a5.557,5.557,0,0,1-2.157-2.076,5.97,5.97,0,0,1,0-5.915,5.555,5.555,0,0,1,2.157-2.078,6.687,6.687,0,0,1,6.158,0,5.519,5.519,0,0,1,2.149,2.069,6.056,6.056,0,0,1,0,5.932,5.517,5.517,0,0,1-2.149,2.068,6.679,6.679,0,0,1-6.158,0Zm5.325-1.252a4.152,4.152,0,0,0,1.569-1.56,4.595,4.595,0,0,0,0-4.444,4.152,4.152,0,0,0-1.569-1.56,4.442,4.442,0,0,0-2.238-.566,4.532,4.532,0,0,0-2.254.566,4.108,4.108,0,0,0-1.584,1.56,4.595,4.595,0,0,0,0,4.444,4.108,4.108,0,0,0,1.584,1.56,4.531,4.531,0,0,0,2.254.565A4.441,4.441,0,0,0,350.927,239.686Z" style="fill:#fff"/><path d="M357.991,241.294a5.061,5.061,0,0,1-1.867-1.026l.6-1.261a4.967,4.967,0,0,0,1.657.946,6.1,6.1,0,0,0,2.078.363,3.739,3.739,0,0,0,2.1-.476,1.471,1.471,0,0,0,.7-1.269,1.251,1.251,0,0,0-.38-.946,2.543,2.543,0,0,0-.937-.557q-.558-.2-1.576-.436a16.262,16.262,0,0,1-2.061-.615,3.409,3.409,0,0,1-1.341-.945,2.523,2.523,0,0,1-.557-1.721,2.911,2.911,0,0,1,.476-1.633,3.277,3.277,0,0,1,1.446-1.164,5.889,5.889,0,0,1,2.409-.436,7.641,7.641,0,0,1,1.971.259,5.245,5.245,0,0,1,1.665.743l-.533,1.293a5.821,5.821,0,0,0-1.519-.686,5.652,5.652,0,0,0-1.584-.235,3.489,3.489,0,0,0-2.061.5,1.537,1.537,0,0,0-.687,1.293,1.236,1.236,0,0,0,.387.945,2.717,2.717,0,0,0,.963.566,14.781,14.781,0,0,0,1.559.428,15.792,15.792,0,0,1,2.053.615,3.444,3.444,0,0,1,1.334.937,2.475,2.475,0,0,1,.557,1.7,2.891,2.891,0,0,1-.485,1.624,3.24,3.24,0,0,1-1.471,1.163,6.07,6.07,0,0,1-2.423.429A7.736,7.736,0,0,1,357.991,241.294Z" style="fill:#fff"/><path d="M369.19,240.938a5.529,5.529,0,0,1-2.141-2.068,6.049,6.049,0,0,1,0-5.932,5.512,5.512,0,0,1,2.149-2.069,6.3,6.3,0,0,1,3.07-.751,6.4,6.4,0,0,1,2.425.445,4.961,4.961,0,0,1,1.875,1.317l-1.052,1.018a4.212,4.212,0,0,0-3.184-1.342,4.615,4.615,0,0,0-2.278.566,4.1,4.1,0,0,0-1.592,1.56,4.595,4.595,0,0,0,0,4.444,4.1,4.1,0,0,0,1.592,1.56,4.614,4.614,0,0,0,2.278.565,4.22,4.22,0,0,0,3.184-1.357l1.052,1.018a5.025,5.025,0,0,1-1.883,1.325,6.371,6.371,0,0,1-2.432.453A6.242,6.242,0,0,1,369.19,240.938Z" style="fill:#fff"/><path d="M380.656,240.938a5.563,5.563,0,0,1-2.157-2.076,5.97,5.97,0,0,1,0-5.915,5.561,5.561,0,0,1,2.157-2.078,6.687,6.687,0,0,1,6.158,0,5.519,5.519,0,0,1,2.149,2.069,6.056,6.056,0,0,1,0,5.932,5.517,5.517,0,0,1-2.149,2.068,6.679,6.679,0,0,1-6.158,0Zm5.325-1.252a4.152,4.152,0,0,0,1.569-1.56,4.595,4.595,0,0,0,0-4.444,4.152,4.152,0,0,0-1.569-1.56,4.439,4.439,0,0,0-2.238-.566,4.534,4.534,0,0,0-2.254.566,4.108,4.108,0,0,0-1.584,1.56,4.595,4.595,0,0,0,0,4.444,4.108,4.108,0,0,0,1.584,1.56,4.534,4.534,0,0,0,2.254.565A4.439,4.439,0,0,0,385.981,239.686Z" style="fill:#fff"/><path d="M400.083,231.3a3.949,3.949,0,0,1,0,5.786,5.242,5.242,0,0,1-3.459,1.05h-2.8v3.427h-1.616V230.248h4.412A5.242,5.242,0,0,1,400.083,231.3Zm-1.164,4.776a2.6,2.6,0,0,0,0-3.766,3.646,3.646,0,0,0-2.343-.654h-2.748v5.074h2.748A3.646,3.646,0,0,0,398.919,236.074Z" style="fill:#fff"/><path d="M408.049,237.649v3.912h-1.6v-3.944l-4.492-7.369h1.73l3.62,5.963,3.635-5.963h1.6Z" style="fill:#fff"/><path d="M420.542,240.938a5.563,5.563,0,0,1-2.157-2.076,5.97,5.97,0,0,1,0-5.915,5.561,5.561,0,0,1,2.157-2.078,6.687,6.687,0,0,1,6.158,0,5.522,5.522,0,0,1,2.15,2.069,6.063,6.063,0,0,1,0,5.932,5.519,5.519,0,0,1-2.15,2.068,6.679,6.679,0,0,1-6.158,0Zm5.325-1.252a4.152,4.152,0,0,0,1.569-1.56,4.588,4.588,0,0,0,0-4.444,4.152,4.152,0,0,0-1.569-1.56,4.439,4.439,0,0,0-2.238-.566,4.528,4.528,0,0,0-2.253.566,4.1,4.1,0,0,0-1.584,1.56,4.588,4.588,0,0,0,0,4.444,4.1,4.1,0,0,0,1.584,1.56,4.527,4.527,0,0,0,2.253.565A4.439,4.439,0,0,0,425.867,239.686Z" style="fill:#fff"/><path d="M433.714,231.654V235.6h5.673v1.39h-5.673v4.574H432.1V230.248h7.984v1.406Z" style="fill:#fff"/><path d="M453.915,238.732H447.9l-1.245,2.829H445l5.123-11.313h1.6l5.14,11.313h-1.7Zm-.565-1.293-2.44-5.543-2.44,5.543Z" style="fill:#fff"/><path d="M460.373,240.938a5.529,5.529,0,0,1-2.141-2.068,6.049,6.049,0,0,1,0-5.932,5.512,5.512,0,0,1,2.149-2.069,6.3,6.3,0,0,1,3.07-.751,6.4,6.4,0,0,1,2.425.445,4.961,4.961,0,0,1,1.875,1.317L466.7,232.9a4.212,4.212,0,0,0-3.184-1.342,4.617,4.617,0,0,0-2.278.566,4.1,4.1,0,0,0-1.592,1.56,4.595,4.595,0,0,0,0,4.444,4.1,4.1,0,0,0,1.592,1.56,4.617,4.617,0,0,0,2.278.565,4.22,4.22,0,0,0,3.184-1.357l1.052,1.018a5.025,5.025,0,0,1-1.883,1.325,6.371,6.371,0,0,1-2.432.453A6.244,6.244,0,0,1,460.373,240.938Z" style="fill:#fff"/><path d="M472.178,231.654H468.3v-1.406h9.357v1.406h-3.879v9.907h-1.6Z" style="fill:#fff"/><path d="M479.419,230.248h1.615v11.313h-1.615Z" style="fill:#fff"/><path d="M494.157,230.248v11.313h-1.324l-6.788-8.437v8.437h-1.617V230.248h1.326l6.788,8.436v-8.436Z" style="fill:#fff"/><path d="M497.551,230.248h1.617v11.313h-1.617Z" style="fill:#fff"/><path d="M502.562,230.248h4.768a6.889,6.889,0,0,1,3.184.711,5.225,5.225,0,0,1,2.157,2,6.053,6.053,0,0,1,0,5.9,5.234,5.234,0,0,1-2.157,2,6.9,6.9,0,0,1-3.184.711h-4.768Zm4.67,9.906a5.235,5.235,0,0,0,2.417-.533,3.848,3.848,0,0,0,1.607-1.5,4.645,4.645,0,0,0,0-4.444,3.855,3.855,0,0,0-1.607-1.495,5.247,5.247,0,0,0-2.417-.533h-3.055v8.5Z" style="fill:#fff"/><path d="M524.121,240.154v1.407h-8.21V230.248H523.9v1.406h-6.368v3.474H523.2V236.5h-5.673v3.652Z" style="fill:#fff"/><path d="M527.571,241.294a5.064,5.064,0,0,1-1.866-1.026l.6-1.261a4.957,4.957,0,0,0,1.657.946,6.086,6.086,0,0,0,2.076.363,3.746,3.746,0,0,0,2.1-.476,1.472,1.472,0,0,0,.7-1.269,1.25,1.25,0,0,0-.379-.946,2.56,2.56,0,0,0-.937-.557q-.558-.2-1.577-.436a16.24,16.24,0,0,1-2.06-.615,3.388,3.388,0,0,1-1.341-.945,2.524,2.524,0,0,1-.559-1.721,2.913,2.913,0,0,1,.478-1.633,3.271,3.271,0,0,1,1.446-1.164,5.88,5.88,0,0,1,2.408-.436,7.643,7.643,0,0,1,1.972.259,5.256,5.256,0,0,1,1.665.743l-.534,1.293a5.783,5.783,0,0,0-1.52-.686,5.635,5.635,0,0,0-1.583-.235,3.486,3.486,0,0,0-2.06.5,1.533,1.533,0,0,0-.688,1.293,1.238,1.238,0,0,0,.389.945,2.694,2.694,0,0,0,.962.566,14.577,14.577,0,0,0,1.559.428,15.84,15.84,0,0,1,2.053.615,3.445,3.445,0,0,1,1.332.937,2.466,2.466,0,0,1,.558,1.7,2.883,2.883,0,0,1-.485,1.624,3.24,3.24,0,0,1-1.471,1.163,6.069,6.069,0,0,1-2.424.429A7.745,7.745,0,0,1,527.571,241.294Z" style="fill:#fff"/></svg>