<?xml version="1.0" encoding="UTF-8" standalone="no"?>
<svg
   xmlns:dc="http://purl.org/dc/elements/1.1/"
   xmlns:cc="http://creativecommons.org/ns#"
   xmlns:rdf="http://www.w3.org/1999/02/22-rdf-syntax-ns#"
   xmlns:svg="http://www.w3.org/2000/svg"
   xmlns="http://www.w3.org/2000/svg"
   xmlns:xlink="http://www.w3.org/1999/xlink"
   xmlns:sodipodi="http://sodipodi.sourceforge.net/DTD/sodipodi-0.dtd"
   xmlns:inkscape="http://www.inkscape.org/namespaces/inkscape"
   version="1.1"
   id="svg912"
   xml:space="preserve"
   width="1280"
   height="720"
   viewBox="0 0 1280 720"
   sodipodi:docname="Title.svg"
   inkscape:version="1.0.2 (e86c870879, 2021-01-15)"><metadata
     id="metadata918"><rdf:RDF><cc:Work
         rdf:about=""><dc:format>image/svg+xml</dc:format><dc:type
           rdf:resource="http://purl.org/dc/dcmitype/StillImage" /><dc:title /></cc:Work></rdf:RDF></metadata><defs
     id="defs916"><clipPath
       clipPathUnits="userSpaceOnUse"
       id="clipPath930"><path
         d="M 0,1.2207e-4 H 959.76 V 540.00012 H 0 Z"
         clip-rule="evenodd"
         id="path928" /></clipPath><clipPath
       clipPathUnits="userSpaceOnUse"
       id="clipPath940"><path
         d="M 1.4302e-5,1.2207e-4 H 959.76001 V 540.00012 H 1.4302e-5 Z"
         clip-rule="evenodd"
         id="path938" /></clipPath><clipPath
       id="clipEmfPath3"
       clipPathUnits="userSpaceOnUse"><path
         id="path865"
         d="m 0,-1.1199418 v 0 V 583.41661 H 1038.5941 V -1.1199418" /></clipPath><clipPath
       id="clipPath2709"
       clipPathUnits="userSpaceOnUse"><path
         id="path2707"
         d="m 0,-1.1199418 v 0 V 583.41661 H 1038.5941 V -1.1199418" /></clipPath><clipPath
       id="clipEmfPath3-3"
       clipPathUnits="userSpaceOnUse"><path
         id="path865-6"
         d="m 0,-1.1199418 v 0 V 583.41661 H 1038.5941 V -1.1199418" /></clipPath><clipPath
       id="clipPath2774"
       clipPathUnits="userSpaceOnUse"><path
         id="path2772"
         d="m 0,-1.1199418 v 0 V 583.41661 H 1038.5941 V -1.1199418" /></clipPath><linearGradient
       inkscape:collect="always"
       xlink:href="#linearGradient1043"
       id="linearGradient6642"
       gradientUnits="userSpaceOnUse"
       gradientTransform="matrix(1.2742858e-7,1.3258855,1.3258855,-1.2742858e-7,-643.19514,-553.31567)"
       x1="478.00418"
       y1="1177.6741"
       x2="802.56622"
       y2="1177.6741" /><linearGradient
       inkscape:collect="always"
       id="linearGradient1043"><stop
         style="stop-color:#e5352b;stop-opacity:1"
         offset="0"
         id="stop1039" /><stop
         id="stop1047"
         offset="0.33329999"
         style="stop-color:#fbea1c;stop-opacity:1" /><stop
         style="stop-color:#2eac68;stop-opacity:1"
         offset="0.66659999"
         id="stop1051" /><stop
         style="stop-color:#253366;stop-opacity:1"
         offset="1"
         id="stop1041" /></linearGradient><clipPath
       id="clipPath2784"
       clipPathUnits="userSpaceOnUse"><path
         id="path2782"
         d="m 0,-1.1199418 v 0 V 583.41661 H 1038.5941 V -1.1199418" /></clipPath><filter
       inkscape:collect="always"
       style="color-interpolation-filters:sRGB"
       id="filter5438"
       x="-0.001008029"
       width="1.0020161"
       y="-0.0014822903"
       height="1.0029646"><feGaussianBlur
         inkscape:collect="always"
         stdDeviation="0.019044922"
         id="feGaussianBlur5440" /></filter><filter
       inkscape:collect="always"
       style="color-interpolation-filters:sRGB"
       id="filter5442"
       x="-0.00085830537"
       width="1.0017166"
       y="-0.0019936992"
       height="1.0039874"><feGaussianBlur
         inkscape:collect="always"
         stdDeviation="0.16472654"
         id="feGaussianBlur5444" /></filter></defs><sodipodi:namedview
     pagecolor="#ffffff"
     bordercolor="#666666"
     borderopacity="1"
     objecttolerance="10"
     gridtolerance="10"
     guidetolerance="10"
     inkscape:pageopacity="0"
     inkscape:pageshadow="2"
     inkscape:window-width="1920"
     inkscape:window-height="1016"
     id="namedview914"
     showgrid="false"
     inkscape:zoom="0.52044259"
     inkscape:cx="268.27219"
     inkscape:cy="482.83508"
     inkscape:window-x="0"
     inkscape:window-y="0"
     inkscape:window-maximized="1"
     inkscape:current-layer="g920"
     inkscape:document-rotation="0" /><g
     id="g920"
     inkscape:groupmode="layer"
     inkscape:label="LISA_Presentations Template_16_9"
     transform="matrix(1.3333333,0,0,-1.3333333,0,719.99998)"><path
       d="M 0,0 H 959.76 V 540 H 0 Z"
       style="fill:#ffffff;fill-opacity:1;fill-rule:evenodd;stroke:none"
       id="path922" /><rect
       style="fill:#20254b;fill-opacity:1;stroke:none;stroke-width:1.95001;stroke-linecap:round"
       id="rect2684"
       width="960.00006"
       height="540"
       x="0"
       y="-540"
       transform="scale(1,-1)"
       ry="0" /><g
       id="g2854"><path
         transform="matrix(0.74999997,0,0,-0.74999997,503.90024,544.27236)"
         inkscape:connector-curvature="0"
         style="fill:#ffffff;fill-opacity:1;fill-rule:nonzero;stroke:none"
         clip-path="url(#clipEmfPath3-3)"
         d="m 614.83377,357.08419 v 0 l -48.468,-21.70811 h 82.05084 v 0 -6.69503 0 h -82.05084 l 48.38688,-21.66753 -2.75801,-6.12697 -46.27781,20.69372 56.33644,-56.35994 -4.66429,-4.82853 -56.1742,56.19763 20.56341,-46.05366 -6.12441,-2.71858 -21.78018,48.65051 v -82.36909 h -6.73279 v 82.12564 l -21.61794,-48.36649 -6.12441,2.71859 20.64452,46.21596 -56.377,-56.40051 -4.62372,4.86911 56.13365,56.19763 -45.9939,-20.61256 -2.75801,6.16754 48.42743,21.66753 h -82.33475 v 0 l -0.0406,6.69503 h 0.0406 82.33475 l -48.50855,21.70811 2.75801,6.16754 46.07502,-20.61256 -56.25533,56.27878 4.82652,4.66623 56.45812,-56.48166 -20.7662,46.41884 6.16496,2.71858 21.57739,-48.24475 -0.0406,81.96333 h 6.73279 v -82.20679 l 21.69906,48.52879 6.12441,-2.75916 -20.64453,-46.17539 56.33644,56.31936 4.74541,-4.74738 -56.41756,-56.44109 46.35892,20.73429 z"
         id="path892" /><path
         inkscape:connector-curvature="0"
         id="path956"
         d="M 844.1591,496.00242 A 213.46757,213.46757 0 0 1 715.98351,222.67505 213.46757,213.46757 0 0 1 989.3108,94.499448 213.46757,213.46757 0 0 1 1117.4865,367.82674 213.46757,213.46757 0 0 1 844.1591,496.00242 Z m 13.52349,-37.40715 A 173.691,173.691 0 0 0 1080.0794,354.30334 173.691,173.691 0 0 0 975.7874,131.90656 173.691,173.691 0 0 0 753.39061,236.19848 173.691,173.691 0 0 0 857.68259,458.59527 Z"
         style="fill:url(#linearGradient6642);fill-opacity:1;stroke:none;stroke-width:2.80346;stroke-linecap:square;stroke-linejoin:miter;stroke-miterlimit:4;stroke-dasharray:none;stroke-dashoffset:0;stroke-opacity:1;paint-order:fill markers stroke" /><path
         transform="matrix(0.82723088,0,0,-0.82723088,462.39302,599.96045)"
         inkscape:connector-curvature="0"
         style="fill:none;stroke:#f9f9f9;stroke-width:1.62424;stroke-linecap:butt;stroke-linejoin:miter;stroke-miterlimit:10;stroke-dasharray:none;stroke-opacity:1"
         clip-path="url(#clipEmfPath3-3)"
         d="m 548.07366,120.2426 v 0 c 0,56.48167 -45.7911,102.33245 -102.28977,102.33245 -56.49868,0 -102.28978,-45.85078 -102.28978,-102.33245 0,-56.522238 45.7911,-102.33244 102.28978,-102.33244 56.49867,0 102.28977,45.810202 102.28977,102.33244 z"
         id="path894" /><path
         transform="matrix(1.2952654,0,0,-1.2437647,259.70772,771.91448)"
         inkscape:connector-curvature="0"
         style="fill:#ffffff;fill-opacity:1;fill-rule:nonzero;stroke:none;stroke-width:0.590898"
         clip-path="url(#clipEmfPath3-3)"
         d="m 392.61105,535.57762 v 0 c 0,4.62565 -3.73143,8.39921 -8.39571,8.39921 -4.66429,0 -8.39572,-3.77356 -8.39572,-8.39921 0,-4.66623 3.73143,-8.43979 8.39572,-8.43979 4.66428,0 8.39571,3.77356 8.39571,8.43979 z"
         id="path896" /></g><g
       id="g9478"
       transform="matrix(0.27693015,0,0,-0.27693015,-0.3099067,87.52904)"
       style="stroke-width:2.70827;filter:url(#filter5442)"><path
         d="M 160.676,187.635 H 91.91 v -77.716 a 7.783,7.783 0 0 0 -15.565,0 v 85.139 a 6.161,6.161 0 0 0 6.153,6.154 h 78.178 a 6.789,6.789 0 1 0 0,-13.577 z"
         style="fill:#ffffff;stroke-width:2.70827"
         id="path9318" /><path
         d="m 212.969,102.137 a 7.791,7.791 0 0 0 -7.781,7.782 v 83.511 a 7.782,7.782 0 1 0 15.564,0 v -83.511 a 7.792,7.792 0 0 0 -7.783,-7.782 z"
         style="fill:#ffffff;stroke-width:2.70827"
         id="path9320" /><path
         d="m 315.965,113.725 h 11.927 c 5.91,0 10.929,0.135 14.92,0.4 a 29.043,29.043 0 0 1 9.225,1.845 8.345,8.345 0 0 1 4.434,3.9 17.928,17.928 0 0 1 1.42,7.936 6.658,6.658 0 0 0 6.65,6.651 h 2.259 a 6.658,6.658 0 0 0 6.651,-6.651 43.073,43.073 0 0 0 -0.781,-8.5 20.46,20.46 0 0 0 -2.9,-7.187 v 0 a 19.1,19.1 0 0 0 -5.625,-5.5 31.982,31.982 0 0 0 -8.533,-3.7 66.867,66.867 0 0 0 -11.883,-2.111 c -4.506,-0.439 -9.834,-0.662 -15.837,-0.662 h -11.927 c -7.317,0 -13.775,0.275 -19.195,0.817 a 86.474,86.474 0 0 0 -14.129,2.448 36.292,36.292 0 0 0 -9.915,4.17 22.376,22.376 0 0 0 -6.281,5.859 19.915,19.915 0 0 0 -3.18,7.413 41.591,41.591 0 0 0 -0.815,8.451 58.14,58.14 0 0 0 0.514,7.983 20.077,20.077 0 0 0 2.361,7.136 18.145,18.145 0 0 0 5.343,5.777 29.736,29.736 0 0 0 9,4.056 78.656,78.656 0 0 0 13.4,2.39 188.35,188.35 0 0 0 18.921,0.818 h 16.4 a 121.658,121.658 0 0 1 15.845,0.829 24.313,24.313 0 0 1 8.861,2.61 8.022,8.022 0 0 1 3.74,4.4 24.922,24.922 0 0 1 1.054,7.861 18.273,18.273 0 0 1 -1.5,7.828 10.873,10.873 0 0 1 -4.991,4.9 32.416,32.416 0 0 1 -10.4,2.992 122.505,122.505 0 0 1 -17.075,0.986 h -15.9 c -5.9,0 -10.91,-0.137 -14.881,-0.406 a 28.688,28.688 0 0 1 -9.193,-1.878 8.4,8.4 0 0 1 -4.439,-3.975 18.515,18.515 0 0 1 -1.422,-8.082 6.659,6.659 0 0 0 -6.652,-6.651 h -2.26 a 6.659,6.659 0 0 0 -6.652,6.651 43.527,43.527 0 0 0 0.781,8.535 20.427,20.427 0 0 0 2.9,7.217 19.879,19.879 0 0 0 5.568,5.546 30.137,30.137 0 0 0 8.528,3.781 68.824,68.824 0 0 0 11.877,2.143 c 4.513,0.46 9.843,0.694 15.844,0.694 h 15.9 a 149.352,149.352 0 0 0 17.585,-0.911 69.021,69.021 0 0 0 13.053,-2.707 33.5,33.5 0 0 0 9.2,-4.461 21.727,21.727 0 0 0 8.883,-13.7 42.6,42.6 0 0 0 0.813,-8.5 67.564,67.564 0 0 0 -0.481,-8.334 22.062,22.062 0 0 0 -2.205,-7.38 19.116,19.116 0 0 0 -4.868,-5.965 25.4,25.4 0 0 0 -8.266,-4.292 62.544,62.544 0 0 0 -12.195,-2.481 151.736,151.736 0 0 0 -17.048,-0.824 h -16.4 c -5.274,0 -9.847,-0.113 -13.593,-0.336 a 69.632,69.632 0 0 1 -9.471,-1.118 23.708,23.708 0 0 1 -5.93,-1.886 8.688,8.688 0 0 1 -3.122,-2.531 8.27,8.27 0 0 1 -1.449,-3.506 29.863,29.863 0 0 1 -0.406,-5.207 16.414,16.414 0 0 1 1.538,-7.556 10.5,10.5 0 0 1 5.335,-4.517 40.374,40.374 0 0 1 11.638,-2.68 186.734,186.734 0 0 1 19.432,-0.828 z"
         style="fill:#ffffff;stroke-width:2.70827"
         id="path9322" /><path
         d="m 509.291,180.052 -1.153,0.654 1.153,-0.654 9.917,17.484 a 7.268,7.268 0 0 0 6.31,3.676 7.257,7.257 0 0 0 6.308,-10.843 l -45.413,-79.863 a 16.55,16.55 0 0 0 -28.761,-0.021 l -45.573,79.875 a 7.257,7.257 0 0 0 6.3,10.852 h 1.285 a 7.272,7.272 0 0 0 6.305,-3.665 l 9.962,-17.5 36.745,-64.529 z"
         style="fill:#ffffff;stroke-width:2.70827"
         id="path9324" /><path
         d="M 224.832,73.824 236.271,65 a 3.6901681,3.6901681 0 0 0 -4.9,-5.519 L 220.322,68 a 12.673,12.673 0 0 1 4.51,5.824 z"
         style="fill:#ffffff;stroke-width:2.70827"
         id="path9326" /><path
         d="M 205.76,68 194.71,59.479 A 3.6909159,3.6909159 0 0 0 189.81,65 l 11.439,8.828 A 12.678,12.678 0 0 1 205.76,68 Z"
         style="fill:#ffffff;stroke-width:2.70827"
         id="path9328" /><path
         d="M 216.733,66.224 V 47.088 a 3.69,3.69 0 0 0 -7.38,0 v 19.136 a 12.583,12.583 0 0 1 7.385,0 z"
         style="fill:#ffffff;stroke-width:2.70827"
         id="path9330" /><path
         d="M 200.621,76.1 H 78.065 a 3.126,3.126 0 0 0 0,6.251 H 201.1 A 12.249,12.249 0 0 1 200.624,76.1 Z"
         style="fill:#ffffff;stroke-width:2.70827"
         id="path9332" /><path
         d="M 531.068,76.1 H 225.46 a 12.249,12.249 0 0 1 -0.476,6.251 h 306.084 a 3.126,3.126 0 0 0 0,-6.251 z"
         style="fill:#ffffff;stroke-width:2.70827"
         id="path9334" /><path
         d="m 213.041,72.28 a 6.19,6.19 0 1 0 6.19,6.19 6.19,6.19 0 0 0 -6.19,-6.19 z"
         style="fill:#ffffff;stroke-width:2.70827"
         id="path9336" /><path
         d="m 73.816,230.248 h 1.616 v 9.906 h 6.126 v 1.407 h -7.742 z"
         style="fill:#ffffff;stroke-width:2.70827"
         id="path9338" /><path
         d="m 90.672,238.732 h -6.011 l -1.245,2.829 h -1.665 l 5.123,-11.313 h 1.6 l 5.14,11.313 h -1.7 z m -0.565,-1.293 -2.441,-5.539 -2.44,5.543 z"
         style="fill:#ffffff;stroke-width:2.70827"
         id="path9340" /><path
         d="m 96.127,241.294 a 5.056,5.056 0 0 1 -1.866,-1.026 l 0.6,-1.261 a 4.967,4.967 0 0 0 1.657,0.946 6.092,6.092 0 0 0 2.077,0.363 3.745,3.745 0 0 0 2.1,-0.476 1.47,1.47 0 0 0 0.7,-1.269 1.25,1.25 0 0 0 -0.379,-0.946 2.551,2.551 0 0 0 -0.937,-0.557 q -0.558,-0.2 -1.577,-0.436 a 16.291,16.291 0 0 1 -2.06,-0.615 3.4,3.4 0 0 1 -1.341,-0.945 2.523,2.523 0 0 1 -0.558,-1.721 2.912,2.912 0 0 1 0.477,-1.633 3.277,3.277 0 0 1 1.446,-1.164 5.884,5.884 0 0 1 2.408,-0.436 7.643,7.643 0 0 1 1.972,0.259 5.256,5.256 0 0 1 1.665,0.743 l -0.534,1.293 a 5.791,5.791 0 0 0 -1.519,-0.686 5.642,5.642 0 0 0 -1.584,-0.235 3.486,3.486 0 0 0 -2.06,0.5 1.535,1.535 0 0 0 -0.687,1.293 1.234,1.234 0 0 0 0.388,0.945 2.694,2.694 0 0 0 0.962,0.566 14.712,14.712 0 0 0 1.559,0.428 15.84,15.84 0 0 1 2.053,0.615 3.448,3.448 0 0 1 1.333,0.937 2.47,2.47 0 0 1 0.557,1.7 2.89,2.89 0 0 1 -0.484,1.624 3.246,3.246 0 0 1 -1.471,1.163 6.076,6.076 0 0 1 -2.424,0.429 7.741,7.741 0 0 1 -2.473,-0.398 z"
         style="fill:#ffffff;stroke-width:2.70827"
         id="path9342" /><path
         d="m 113.541,240.154 v 1.407 h -8.21 v -11.313 h 7.984 v 1.406 h -6.368 v 3.474 h 5.673 v 1.372 h -5.673 v 3.652 z"
         style="fill:#ffffff;stroke-width:2.70827"
         id="path9344" /><path
         d="m 123.722,241.561 -2.44,-3.475 c -0.3,0.022 -0.539,0.032 -0.711,0.032 h -2.8 v 3.443 h -1.616 v -11.313 h 4.412 a 5.245,5.245 0 0 1 3.459,1.05 3.565,3.565 0 0 1 1.26,2.893 3.782,3.782 0 0 1 -0.646,2.23 3.65,3.65 0 0 1 -1.843,1.341 l 2.683,3.8 z m -0.856,-5.479 a 2.308,2.308 0 0 0 0.808,-1.891 2.284,2.284 0 0 0 -0.808,-1.883 3.651,3.651 0 0 0 -2.344,-0.654 h -2.747 v 5.091 h 2.747 a 3.616,3.616 0 0 0 2.344,-0.663 z"
         style="fill:#ffffff;stroke-width:2.70827"
         id="path9346" /><path
         d="m 132.256,230.248 h 1.616 v 11.313 h -1.616 z"
         style="fill:#ffffff;stroke-width:2.70827"
         id="path9348" /><path
         d="m 139.286,240.938 a 5.55,5.55 0 0 1 -2.157,-2.076 5.964,5.964 0 0 1 0,-5.915 5.548,5.548 0 0 1 2.157,-2.078 6.685,6.685 0 0 1 6.157,0 5.515,5.515 0 0 1 2.15,2.069 6.056,6.056 0 0 1 0,5.932 5.513,5.513 0 0 1 -2.15,2.068 6.677,6.677 0 0 1 -6.157,0 z m 5.325,-1.252 a 4.15,4.15 0 0 0 1.568,-1.56 4.588,4.588 0 0 0 0,-4.444 4.15,4.15 0 0 0 -1.568,-1.56 4.445,4.445 0 0 0 -2.238,-0.566 4.535,4.535 0 0 0 -2.255,0.566 4.106,4.106 0 0 0 -1.583,1.56 4.588,4.588 0 0 0 0,4.444 4.106,4.106 0 0 0 1.583,1.56 4.535,4.535 0 0 0 2.255,0.565 4.444,4.444 0 0 0 2.238,-0.565 z"
         style="fill:#ffffff;stroke-width:2.70827"
         id="path9350" /><path
         d="m 160.57,230.248 v 11.313 h -1.325 l -6.788,-8.437 v 8.437 h -1.616 v -11.313 h 1.325 l 6.788,8.436 v -8.436 z"
         style="fill:#ffffff;stroke-width:2.70827"
         id="path9352" /><path
         d="m 163.965,230.248 h 1.616 v 11.313 h -1.616 z"
         style="fill:#ffffff;stroke-width:2.70827"
         id="path9354" /><path
         d="m 169.807,241.294 a 5.056,5.056 0 0 1 -1.866,-1.026 l 0.6,-1.261 a 4.967,4.967 0 0 0 1.657,0.946 6.092,6.092 0 0 0 2.077,0.363 3.745,3.745 0 0 0 2.1,-0.476 1.47,1.47 0 0 0 0.695,-1.269 1.25,1.25 0 0 0 -0.379,-0.946 2.551,2.551 0 0 0 -0.937,-0.557 q -0.558,-0.2 -1.577,-0.436 a 16.291,16.291 0 0 1 -2.06,-0.615 3.4,3.4 0 0 1 -1.341,-0.945 2.523,2.523 0 0 1 -0.558,-1.721 2.912,2.912 0 0 1 0.477,-1.633 3.277,3.277 0 0 1 1.446,-1.164 5.884,5.884 0 0 1 2.408,-0.436 7.643,7.643 0 0 1 1.972,0.259 5.256,5.256 0 0 1 1.665,0.743 l -0.534,1.293 a 5.791,5.791 0 0 0 -1.519,-0.686 5.642,5.642 0 0 0 -1.584,-0.235 3.486,3.486 0 0 0 -2.06,0.5 1.535,1.535 0 0 0 -0.687,1.293 1.236,1.236 0 0 0 0.387,0.945 2.708,2.708 0 0 0 0.963,0.566 14.712,14.712 0 0 0 1.559,0.428 15.84,15.84 0 0 1 2.053,0.615 3.448,3.448 0 0 1 1.333,0.937 2.47,2.47 0 0 1 0.557,1.7 2.89,2.89 0 0 1 -0.484,1.624 3.246,3.246 0 0 1 -1.471,1.163 6.079,6.079 0 0 1 -2.424,0.429 7.741,7.741 0 0 1 -2.468,-0.398 z"
         style="fill:#ffffff;stroke-width:2.70827"
         id="path9356" /><path
         d="m 186.218,238.732 h -6.012 l -1.244,2.829 H 177.3 l 5.123,-11.313 h 1.6 l 5.14,11.313 h -1.7 z m -0.565,-1.293 -2.441,-5.543 -2.44,5.543 z"
         style="fill:#ffffff;stroke-width:2.70827"
         id="path9358" /><path
         d="m 192.522,231.654 h -3.879 v -1.406 H 198 v 1.406 h -3.879 v 9.907 h -1.6 z"
         style="fill:#ffffff;stroke-width:2.70827"
         id="path9360" /><path
         d="m 199.762,230.248 h 1.616 v 11.313 h -1.616 z"
         style="fill:#ffffff;stroke-width:2.70827"
         id="path9362" /><path
         d="m 206.792,240.938 a 5.55,5.55 0 0 1 -2.157,-2.076 5.964,5.964 0 0 1 0,-5.915 5.548,5.548 0 0 1 2.157,-2.078 6.685,6.685 0 0 1 6.157,0 5.508,5.508 0 0 1 2.15,2.069 6.056,6.056 0 0 1 0,5.932 5.506,5.506 0 0 1 -2.15,2.068 6.677,6.677 0 0 1 -6.157,0 z m 5.325,-1.252 a 4.15,4.15 0 0 0 1.568,-1.56 4.588,4.588 0 0 0 0,-4.444 4.15,4.15 0 0 0 -1.568,-1.56 4.445,4.445 0 0 0 -2.238,-0.566 4.538,4.538 0 0 0 -2.255,0.566 4.112,4.112 0 0 0 -1.583,1.56 4.588,4.588 0 0 0 0,4.444 4.112,4.112 0 0 0 1.583,1.56 4.537,4.537 0 0 0 2.255,0.565 4.444,4.444 0 0 0 2.238,-0.565 z"
         style="fill:#ffffff;stroke-width:2.70827"
         id="path9364" /><path
         d="m 228.076,230.248 v 11.313 h -1.325 l -6.788,-8.437 v 8.437 h -1.616 v -11.313 h 1.325 l 6.788,8.436 v -8.436 z"
         style="fill:#ffffff;stroke-width:2.70827"
         id="path9366" /><path
         d="m 243.026,238.732 h -6.012 l -1.245,2.829 H 234.1 l 5.124,-11.313 h 1.6 l 5.14,11.313 h -1.7 z m -0.566,-1.293 -2.44,-5.543 -2.441,5.543 z"
         style="fill:#ffffff;stroke-width:2.70827"
         id="path9368" /><path
         d="m 257.377,230.248 v 11.313 h -1.325 l -6.788,-8.437 v 8.437 h -1.616 v -11.313 h 1.325 l 6.788,8.436 v -8.436 z"
         style="fill:#ffffff;stroke-width:2.70827"
         id="path9370" /><path
         d="m 260.771,230.248 h 4.768 a 6.883,6.883 0 0 1 3.184,0.711 5.225,5.225 0 0 1 2.157,2 6.053,6.053 0 0 1 0,5.9 5.234,5.234 0 0 1 -2.157,2 6.9,6.9 0 0 1 -3.184,0.711 h -4.768 z m 4.67,9.906 a 5.229,5.229 0 0 0 2.417,-0.533 3.845,3.845 0 0 0 1.608,-1.5 4.652,4.652 0 0 0 0,-4.444 3.851,3.851 0 0 0 -1.608,-1.495 5.241,5.241 0 0 0 -2.417,-0.533 h -3.054 v 8.5 z"
         style="fill:#ffffff;stroke-width:2.70827"
         id="path9372" /><path
         d="m 279.3,241.294 a 5.056,5.056 0 0 1 -1.866,-1.026 l 0.6,-1.261 a 4.967,4.967 0 0 0 1.657,0.946 6.092,6.092 0 0 0 2.077,0.363 3.745,3.745 0 0 0 2.1,-0.476 1.471,1.471 0 0 0 0.7,-1.269 1.251,1.251 0 0 0 -0.38,-0.946 2.551,2.551 0 0 0 -0.937,-0.557 q -0.558,-0.2 -1.577,-0.436 a 16.291,16.291 0 0 1 -2.06,-0.615 3.4,3.4 0 0 1 -1.341,-0.945 2.523,2.523 0 0 1 -0.558,-1.721 2.912,2.912 0 0 1 0.477,-1.633 3.277,3.277 0 0 1 1.446,-1.164 5.884,5.884 0 0 1 2.408,-0.436 7.643,7.643 0 0 1 1.972,0.259 5.256,5.256 0 0 1 1.665,0.743 l -0.534,1.293 a 5.791,5.791 0 0 0 -1.519,-0.686 5.642,5.642 0 0 0 -1.584,-0.235 3.486,3.486 0 0 0 -2.06,0.5 1.535,1.535 0 0 0 -0.687,1.293 1.237,1.237 0 0 0 0.388,0.945 2.694,2.694 0 0 0 0.962,0.566 14.712,14.712 0 0 0 1.559,0.428 15.84,15.84 0 0 1 2.053,0.615 3.448,3.448 0 0 1 1.333,0.937 2.47,2.47 0 0 1 0.557,1.7 2.89,2.89 0 0 1 -0.484,1.624 3.246,3.246 0 0 1 -1.471,1.163 6.076,6.076 0 0 1 -2.424,0.429 7.741,7.741 0 0 1 -2.472,-0.398 z"
         style="fill:#ffffff;stroke-width:2.70827"
         id="path9374" /><path
         d="m 296.375,231.3 a 3.951,3.951 0 0 1 0,5.786 5.245,5.245 0 0 1 -3.459,1.05 h -2.8 v 3.427 H 288.5 v -11.315 h 4.412 a 5.245,5.245 0 0 1 3.463,1.052 z m -1.164,4.776 a 2.6,2.6 0 0 0 0,-3.766 3.648,3.648 0 0 0 -2.343,-0.654 h -2.748 v 5.074 h 2.748 a 3.648,3.648 0 0 0 2.343,-0.656 z"
         style="fill:#ffffff;stroke-width:2.70827"
         id="path9376" /><path
         d="m 308.22,240.154 v 1.407 h -8.21 V 230.248 H 308 v 1.406 h -6.369 v 3.474 h 5.669 v 1.372 h -5.673 v 3.652 z"
         style="fill:#ffffff;stroke-width:2.70827"
         id="path9378" /><path
         d="m 312.788,240.938 a 5.528,5.528 0 0 1 -2.143,-2.068 6.063,6.063 0 0 1 0,-5.932 5.526,5.526 0 0 1 2.149,-2.069 6.312,6.312 0 0 1 3.072,-0.751 6.394,6.394 0 0 1 2.424,0.445 4.957,4.957 0 0 1 1.874,1.317 l -1.05,1.018 a 4.216,4.216 0 0 0 -3.184,-1.342 4.609,4.609 0 0 0 -2.278,0.566 4.1,4.1 0 0 0 -1.592,1.56 4.595,4.595 0 0 0 0,4.444 4.1,4.1 0 0 0 1.592,1.56 4.609,4.609 0 0 0 2.278,0.565 4.22,4.22 0 0 0 3.184,-1.357 l 1.05,1.018 a 5.009,5.009 0 0 1 -1.883,1.325 6.356,6.356 0 0 1 -2.432,0.453 6.239,6.239 0 0 1 -3.061,-0.752 z"
         style="fill:#ffffff;stroke-width:2.70827"
         id="path9380" /><path
         d="m 324.593,231.654 h -3.88 v -1.406 h 9.359 v 1.406 h -3.88 v 9.907 h -1.6 z"
         style="fill:#ffffff;stroke-width:2.70827"
         id="path9382" /><path
         d="m 339.4,241.561 -2.44,-3.475 c -0.3,0.022 -0.538,0.032 -0.711,0.032 h -2.8 v 3.443 h -1.616 v -11.313 h 4.412 a 5.239,5.239 0 0 1 3.458,1.05 3.564,3.564 0 0 1 1.262,2.893 3.782,3.782 0 0 1 -0.647,2.23 3.655,3.655 0 0 1 -1.843,1.341 l 2.683,3.8 z m -0.856,-5.479 a 2.306,2.306 0 0 0 0.808,-1.891 2.281,2.281 0 0 0 -0.808,-1.883 3.646,3.646 0 0 0 -2.343,-0.654 h -2.748 v 5.091 h 2.747 a 3.611,3.611 0 0 0 2.34,-0.663 z"
         style="fill:#ffffff;stroke-width:2.70827"
         id="path9384" /><path
         d="m 345.6,240.938 a 5.557,5.557 0 0 1 -2.157,-2.076 5.97,5.97 0 0 1 0,-5.915 5.555,5.555 0 0 1 2.157,-2.078 6.687,6.687 0 0 1 6.158,0 5.519,5.519 0 0 1 2.149,2.069 6.056,6.056 0 0 1 0,5.932 5.517,5.517 0 0 1 -2.149,2.068 6.679,6.679 0 0 1 -6.158,0 z m 5.325,-1.252 a 4.152,4.152 0 0 0 1.569,-1.56 4.595,4.595 0 0 0 0,-4.444 4.152,4.152 0 0 0 -1.569,-1.56 4.442,4.442 0 0 0 -2.238,-0.566 4.532,4.532 0 0 0 -2.254,0.566 4.108,4.108 0 0 0 -1.584,1.56 4.595,4.595 0 0 0 0,4.444 4.108,4.108 0 0 0 1.584,1.56 4.531,4.531 0 0 0 2.254,0.565 4.441,4.441 0 0 0 2.24,-0.565 z"
         style="fill:#ffffff;stroke-width:2.70827"
         id="path9386" /><path
         d="m 357.991,241.294 a 5.061,5.061 0 0 1 -1.867,-1.026 l 0.6,-1.261 a 4.967,4.967 0 0 0 1.657,0.946 6.1,6.1 0 0 0 2.078,0.363 3.739,3.739 0 0 0 2.1,-0.476 1.471,1.471 0 0 0 0.7,-1.269 1.251,1.251 0 0 0 -0.38,-0.946 2.543,2.543 0 0 0 -0.937,-0.557 q -0.558,-0.2 -1.576,-0.436 a 16.262,16.262 0 0 1 -2.061,-0.615 3.409,3.409 0 0 1 -1.341,-0.945 2.523,2.523 0 0 1 -0.557,-1.721 2.911,2.911 0 0 1 0.476,-1.633 3.277,3.277 0 0 1 1.446,-1.164 5.889,5.889 0 0 1 2.409,-0.436 7.641,7.641 0 0 1 1.971,0.259 5.245,5.245 0 0 1 1.665,0.743 l -0.533,1.293 a 5.821,5.821 0 0 0 -1.519,-0.686 5.652,5.652 0 0 0 -1.584,-0.235 3.489,3.489 0 0 0 -2.061,0.5 1.537,1.537 0 0 0 -0.687,1.293 1.236,1.236 0 0 0 0.387,0.945 2.717,2.717 0 0 0 0.963,0.566 14.781,14.781 0 0 0 1.559,0.428 15.792,15.792 0 0 1 2.053,0.615 3.444,3.444 0 0 1 1.334,0.937 2.475,2.475 0 0 1 0.557,1.7 2.891,2.891 0 0 1 -0.485,1.624 3.24,3.24 0 0 1 -1.471,1.163 6.07,6.07 0 0 1 -2.423,0.429 7.736,7.736 0 0 1 -2.473,-0.398 z"
         style="fill:#ffffff;stroke-width:2.70827"
         id="path9388" /><path
         d="m 369.19,240.938 a 5.529,5.529 0 0 1 -2.141,-2.068 6.049,6.049 0 0 1 0,-5.932 5.512,5.512 0 0 1 2.149,-2.069 6.3,6.3 0 0 1 3.07,-0.751 6.4,6.4 0 0 1 2.425,0.445 4.961,4.961 0 0 1 1.875,1.317 l -1.052,1.018 a 4.212,4.212 0 0 0 -3.184,-1.342 4.615,4.615 0 0 0 -2.278,0.566 4.1,4.1 0 0 0 -1.592,1.56 4.595,4.595 0 0 0 0,4.444 4.1,4.1 0 0 0 1.592,1.56 4.614,4.614 0 0 0 2.278,0.565 4.22,4.22 0 0 0 3.184,-1.357 l 1.052,1.018 a 5.025,5.025 0 0 1 -1.883,1.325 6.371,6.371 0 0 1 -2.432,0.453 6.242,6.242 0 0 1 -3.063,-0.752 z"
         style="fill:#ffffff;stroke-width:2.70827"
         id="path9390" /><path
         d="m 380.656,240.938 a 5.563,5.563 0 0 1 -2.157,-2.076 5.97,5.97 0 0 1 0,-5.915 5.561,5.561 0 0 1 2.157,-2.078 6.687,6.687 0 0 1 6.158,0 5.519,5.519 0 0 1 2.149,2.069 6.056,6.056 0 0 1 0,5.932 5.517,5.517 0 0 1 -2.149,2.068 6.679,6.679 0 0 1 -6.158,0 z m 5.325,-1.252 a 4.152,4.152 0 0 0 1.569,-1.56 4.595,4.595 0 0 0 0,-4.444 4.152,4.152 0 0 0 -1.569,-1.56 4.439,4.439 0 0 0 -2.238,-0.566 4.534,4.534 0 0 0 -2.254,0.566 4.108,4.108 0 0 0 -1.584,1.56 4.595,4.595 0 0 0 0,4.444 4.108,4.108 0 0 0 1.584,1.56 4.534,4.534 0 0 0 2.254,0.565 4.439,4.439 0 0 0 2.238,-0.565 z"
         style="fill:#ffffff;stroke-width:2.70827"
         id="path9392" /><path
         d="m 400.083,231.3 a 3.949,3.949 0 0 1 0,5.786 5.242,5.242 0 0 1 -3.459,1.05 h -2.8 v 3.427 h -1.616 v -11.315 h 4.412 a 5.242,5.242 0 0 1 3.463,1.052 z m -1.164,4.776 a 2.6,2.6 0 0 0 0,-3.766 3.646,3.646 0 0 0 -2.343,-0.654 h -2.748 v 5.074 h 2.748 a 3.646,3.646 0 0 0 2.343,-0.656 z"
         style="fill:#ffffff;stroke-width:2.70827"
         id="path9394" /><path
         d="m 408.049,237.649 v 3.912 h -1.6 v -3.944 l -4.492,-7.369 h 1.73 l 3.62,5.963 3.635,-5.963 h 1.6 z"
         style="fill:#ffffff;stroke-width:2.70827"
         id="path9396" /><path
         d="m 420.542,240.938 a 5.563,5.563 0 0 1 -2.157,-2.076 5.97,5.97 0 0 1 0,-5.915 5.561,5.561 0 0 1 2.157,-2.078 6.687,6.687 0 0 1 6.158,0 5.522,5.522 0 0 1 2.15,2.069 6.063,6.063 0 0 1 0,5.932 5.519,5.519 0 0 1 -2.15,2.068 6.679,6.679 0 0 1 -6.158,0 z m 5.325,-1.252 a 4.152,4.152 0 0 0 1.569,-1.56 4.588,4.588 0 0 0 0,-4.444 4.152,4.152 0 0 0 -1.569,-1.56 4.439,4.439 0 0 0 -2.238,-0.566 4.528,4.528 0 0 0 -2.253,0.566 4.1,4.1 0 0 0 -1.584,1.56 4.588,4.588 0 0 0 0,4.444 4.1,4.1 0 0 0 1.584,1.56 4.527,4.527 0 0 0 2.253,0.565 4.439,4.439 0 0 0 2.238,-0.565 z"
         style="fill:#ffffff;stroke-width:2.70827"
         id="path9398" /><path
         d="m 433.714,231.654 v 3.946 h 5.673 v 1.39 h -5.673 v 4.574 H 432.1 v -11.316 h 7.984 v 1.406 z"
         style="fill:#ffffff;stroke-width:2.70827"
         id="path9400" /><path
         d="M 453.915,238.732 H 447.9 l -1.245,2.829 H 445 l 5.123,-11.313 h 1.6 l 5.14,11.313 h -1.7 z m -0.565,-1.293 -2.44,-5.543 -2.44,5.543 z"
         style="fill:#ffffff;stroke-width:2.70827"
         id="path9402" /><path
         d="m 460.373,240.938 a 5.529,5.529 0 0 1 -2.141,-2.068 6.049,6.049 0 0 1 0,-5.932 5.512,5.512 0 0 1 2.149,-2.069 6.3,6.3 0 0 1 3.07,-0.751 6.4,6.4 0 0 1 2.425,0.445 4.961,4.961 0 0 1 1.875,1.317 l -1.051,1.02 a 4.212,4.212 0 0 0 -3.184,-1.342 4.617,4.617 0 0 0 -2.278,0.566 4.1,4.1 0 0 0 -1.592,1.56 4.595,4.595 0 0 0 0,4.444 4.1,4.1 0 0 0 1.592,1.56 4.617,4.617 0 0 0 2.278,0.565 4.22,4.22 0 0 0 3.184,-1.357 l 1.052,1.018 a 5.025,5.025 0 0 1 -1.883,1.325 6.371,6.371 0 0 1 -2.432,0.453 6.244,6.244 0 0 1 -3.064,-0.754 z"
         style="fill:#ffffff;stroke-width:2.70827"
         id="path9404" /><path
         d="M 472.178,231.654 H 468.3 v -1.406 h 9.357 v 1.406 h -3.879 v 9.907 h -1.6 z"
         style="fill:#ffffff;stroke-width:2.70827"
         id="path9406" /><path
         d="m 479.419,230.248 h 1.615 v 11.313 h -1.615 z"
         style="fill:#ffffff;stroke-width:2.70827"
         id="path9408" /><path
         d="m 494.157,230.248 v 11.313 h -1.324 l -6.788,-8.437 v 8.437 h -1.617 v -11.313 h 1.326 l 6.788,8.436 v -8.436 z"
         style="fill:#ffffff;stroke-width:2.70827"
         id="path9410" /><path
         d="m 497.551,230.248 h 1.617 v 11.313 h -1.617 z"
         style="fill:#ffffff;stroke-width:2.70827"
         id="path9412" /><path
         d="m 502.562,230.248 h 4.768 a 6.889,6.889 0 0 1 3.184,0.711 5.225,5.225 0 0 1 2.157,2 6.053,6.053 0 0 1 0,5.9 5.234,5.234 0 0 1 -2.157,2 6.9,6.9 0 0 1 -3.184,0.711 h -4.768 z m 4.67,9.906 a 5.235,5.235 0 0 0 2.417,-0.533 3.848,3.848 0 0 0 1.607,-1.5 4.645,4.645 0 0 0 0,-4.444 3.855,3.855 0 0 0 -1.607,-1.495 5.247,5.247 0 0 0 -2.417,-0.533 h -3.055 v 8.5 z"
         style="fill:#ffffff;stroke-width:2.70827"
         id="path9414" /><path
         d="m 524.121,240.154 v 1.407 h -8.21 v -11.313 h 7.989 v 1.406 h -6.368 v 3.474 h 5.668 v 1.372 h -5.673 v 3.652 z"
         style="fill:#ffffff;stroke-width:2.70827"
         id="path9416" /><path
         d="m 527.571,241.294 a 5.064,5.064 0 0 1 -1.866,-1.026 l 0.6,-1.261 a 4.957,4.957 0 0 0 1.657,0.946 6.086,6.086 0 0 0 2.076,0.363 3.746,3.746 0 0 0 2.1,-0.476 1.472,1.472 0 0 0 0.7,-1.269 1.25,1.25 0 0 0 -0.379,-0.946 2.56,2.56 0 0 0 -0.937,-0.557 q -0.558,-0.2 -1.577,-0.436 a 16.24,16.24 0 0 1 -2.06,-0.615 3.388,3.388 0 0 1 -1.341,-0.945 2.524,2.524 0 0 1 -0.559,-1.721 2.913,2.913 0 0 1 0.478,-1.633 3.271,3.271 0 0 1 1.446,-1.164 5.88,5.88 0 0 1 2.408,-0.436 7.643,7.643 0 0 1 1.972,0.259 5.256,5.256 0 0 1 1.665,0.743 l -0.534,1.293 a 5.783,5.783 0 0 0 -1.52,-0.686 5.635,5.635 0 0 0 -1.583,-0.235 3.486,3.486 0 0 0 -2.06,0.5 1.533,1.533 0 0 0 -0.688,1.293 1.238,1.238 0 0 0 0.389,0.945 2.694,2.694 0 0 0 0.962,0.566 14.577,14.577 0 0 0 1.559,0.428 15.84,15.84 0 0 1 2.053,0.615 3.445,3.445 0 0 1 1.332,0.937 2.466,2.466 0 0 1 0.558,1.7 2.883,2.883 0 0 1 -0.485,1.624 3.24,3.24 0 0 1 -1.471,1.163 6.069,6.069 0 0 1 -2.424,0.429 7.745,7.745 0 0 1 -2.471,-0.398 z"
         style="fill:#ffffff;stroke-width:2.70827"
         id="path9418" /></g><g
       id="g5360"
       transform="matrix(1.4582523,0,0,-1.4582523,-116.53074,797.64101)"
       style="stroke-width:0.685752;filter:url(#filter5438)"><path
         style="fill:#fdfdfd;fill-opacity:1;fill-rule:nonzero;stroke:none;stroke-width:0.685752"
         d="m 200.69141,501.69922 h 45.34375 v 30.83594 h -45.34375 z m 0,0"
         id="path6905" /><path
         style="fill:#234aa3;fill-opacity:1;fill-rule:nonzero;stroke:none;stroke-width:0.685752"
         d="m 201.58203,502.54297 h 43.55859 v 29.10156 h -43.55859 z m 0,0"
         id="path6907" /><path
         style="fill:#fdf000;fill-opacity:1;fill-rule:nonzero;stroke:none;stroke-width:0.685752"
         d="m 222.42187,508.87109 0.94141,-0.66015 0.91797,0.66015 -0.35547,-1.07031 0.94141,-0.69141 h -1.17188 l -0.33203,-1.09375 -0.35937,1.09375 h -1.14454 l 0.91797,0.69141 z m 0,0"
         id="path6909" /><path
         style="fill:#fdf000;fill-opacity:1;fill-rule:nonzero;stroke:none;stroke-width:0.685752"
         d="m 217.68359,510.17578 0.91797,-0.69141 0.91406,0.69141 -0.35546,-1.09766 0.9414,-0.66406 h -1.14453 l -0.35547,-1.125 -0.35937,1.125 h -1.14453 l 0.91406,0.66406 z m 0,0"
         id="path6911" /><path
         style="fill:#fdf000;fill-opacity:1;fill-rule:nonzero;stroke:none;stroke-width:0.685752"
         d="m 215.10937,510.78906 -0.35546,1.1211 h -1.14844 l 0.94531,0.66406 -0.35937,1.09765 0.91796,-0.6875 0.91797,0.6875 -0.35937,-1.09765 0.94531,-0.66406 h -1.14844 z m 0,0"
         id="path6913" /><path
         style="fill:#fdf000;fill-opacity:1;fill-rule:nonzero;stroke:none;stroke-width:0.685752"
         d="m 213.83594,517.75781 0.91797,0.66406 -0.35938,-1.07421 0.94141,-0.6875 h -1.14453 l -0.35547,-1.09766 -0.35547,1.09766 h -1.14844 l 0.94531,0.6875 -0.35937,1.07421 z m 0,0"
         id="path6915" /><path
         style="fill:#fdf000;fill-opacity:1;fill-rule:nonzero;stroke:none;stroke-width:0.685752"
         d="m 215.46484,521.43359 -0.35547,-1.10156 -0.35546,1.10156 h -1.14844 l 0.94531,0.69141 -0.35937,1.07031 0.91796,-0.66406 0.91797,0.66406 -0.35937,-1.07031 0.94531,-0.69141 z m 0,0"
         id="path6917" /><path
         style="fill:#fdf000;fill-opacity:1;fill-rule:nonzero;stroke:none;stroke-width:0.685752"
         d="m 218.95703,524.92969 -0.35547,-1.09766 -0.35937,1.09766 h -1.14453 l 0.9414,0.6875 -0.35547,1.07422 0.91797,-0.66407 0.91406,0.66407 -0.35546,-1.07422 0.9414,-0.6875 z m 0,0"
         id="path6919" /><path
         style="fill:#fdf000;fill-opacity:1;fill-rule:nonzero;stroke:none;stroke-width:0.685752"
         d="m 223.69531,526.20703 -0.33203,-1.09766 -0.35937,1.09766 h -1.14454 l 0.91797,0.66406 -0.33203,1.09766 0.91797,-0.66406 0.91797,0.66406 -0.35547,-1.09766 0.94141,-0.66406 z m 0,0"
         id="path6921" /><path
         style="fill:#fdf000;fill-opacity:1;fill-rule:nonzero;stroke:none;stroke-width:0.685752"
         d="m 228.45703,524.92969 -0.35547,-1.09766 -0.35547,1.09766 h -1.14843 l 0.94531,0.6875 -0.35938,1.07422 0.91797,-0.66407 0.91797,0.66407 -0.33203,-1.07422 0.91406,-0.6875 z m 0,0"
         id="path6923" /><path
         style="fill:#fdf000;fill-opacity:1;fill-rule:nonzero;stroke:none;stroke-width:0.685752"
         d="m 231.94922,521.43359 -0.35547,-1.10156 -0.35547,1.10156 h -1.14844 l 0.9375,0.69141 -0.35547,1.07031 0.92188,-0.66406 0.91797,0.66406 -0.35938,-1.07031 0.94141,-0.69141 z m 0,0"
         id="path6925" /><path
         style="fill:#fdf000;fill-opacity:1;fill-rule:nonzero;stroke:none;stroke-width:0.685752"
         d="m 234.36719,516.66016 h -1.14453 l -0.35547,-1.09766 -0.35547,1.09766 h -1.14844 l 0.91406,0.66015 -0.32812,1.10156 0.91797,-0.6914 0.91797,0.6914 -0.35938,-1.10156 z m 0,0"
         id="path6927" /><path
         style="fill:#fdf000;fill-opacity:1;fill-rule:nonzero;stroke:none;stroke-width:0.685752"
         d="m 230.67187,513.64844 0.92188,-0.66407 0.91797,0.66407 -0.35938,-1.10157 0.94141,-0.66406 h -1.14453 l -0.35547,-1.09375 -0.35547,1.09375 h -1.14844 l 0.9375,0.66406 z m 0,0"
         id="path6929" /><path
         style="fill:#fdf000;fill-opacity:1;fill-rule:nonzero;stroke:none;stroke-width:0.685752"
         d="m 228.125,507.3125 -0.35547,1.10156 H 226.625 l 0.91797,0.66406 -0.33594,1.09766 0.91797,-0.69141 0.91797,0.69141 -0.35547,-1.09766 0.94141,-0.66406 h -1.14844 z m 0,0"
         id="path6931" /></g><text
       xml:space="preserve"
       style="font-size:12px;line-height:0;font-family:sans-serif;text-align:center;text-anchor:middle;stroke-width:0.75"
       x="273.53793"
       y="-46.24313"
       id="text5448"
       transform="scale(1,-1)"><tspan
         sodipodi:role="line"
         id="tspan5446"
         x="273.53793"
         y="-46.24313"
         style="font-size:12px;line-height:1;text-align:start;text-anchor:start;fill:#ffffff;fill-opacity:1;stroke-width:0.75">This Marie Sklodowska-Curie Action (MSCA) Innovative Training Networks (ITN) receive funding</tspan><tspan
         sodipodi:role="line"
         x="273.53793"
         y="-34.24313"
         style="font-size:12px;line-height:1;text-align:start;text-anchor:start;fill:#ffffff;fill-opacity:1;stroke-width:0.75"
         id="tspan5450">from the European Union's H2020 Framework Programme under grant agreement no. 861198</tspan></text></g></svg>
