<?xml version="1.0" encoding="UTF-8" standalone="no"?>
<!-- Created with Inkscape (http://www.inkscape.org/) -->

<svg
   xmlns:dc="http://purl.org/dc/elements/1.1/"
   xmlns:cc="http://creativecommons.org/ns#"
   xmlns:rdf="http://www.w3.org/1999/02/22-rdf-syntax-ns#"
   xmlns:svg="http://www.w3.org/2000/svg"
   xmlns="http://www.w3.org/2000/svg"
   xmlns:sodipodi="http://sodipodi.sourceforge.net/DTD/sodipodi-0.dtd"
   xmlns:inkscape="http://www.inkscape.org/namespaces/inkscape"
   width="358.521mm"
   height="153.77159mm"
   viewBox="0 0 358.521 153.77159"
   version="1.1"
   id="svg8"
   inkscape:version="0.92.1 r15371"
   sodipodi:docname="Zeichnung.svg">
  <defs
     id="defs2" />
  <sodipodi:namedview
     id="base"
     pagecolor="#ffffff"
     bordercolor="#666666"
     borderopacity="1.0"
     inkscape:pageopacity="0.0"
     inkscape:pageshadow="2"
     inkscape:zoom="0.35"
     inkscape:cx="-309.62287"
     inkscape:cy="119.16343"
     inkscape:document-units="mm"
     inkscape:current-layer="layer1"
     showgrid="false"
     fit-margin-top="0"
     fit-margin-left="0"
     fit-margin-right="0"
     fit-margin-bottom="0"
     inkscape:window-width="1920"
     inkscape:window-height="1017"
     inkscape:window-x="-8"
     inkscape:window-y="-8"
     inkscape:window-maximized="1" />
  <metadata
     id="metadata5">
    <rdf:RDF>
      <cc:Work
         rdf:about="">
        <dc:format>image/svg+xml</dc:format>
        <dc:type
           rdf:resource="http://purl.org/dc/dcmitype/StillImage" />
        <dc:title></dc:title>
      </cc:Work>
    </rdf:RDF>
  </metadata>
  <g
     inkscape:label="Ebene 1"
     inkscape:groupmode="layer"
     id="layer1"
     transform="translate(43.189068,-26.590393)">
    <g
       id="g10"
       transform="matrix(0.35277777,0,0,-0.35277777,-88.9514,234.0336)">
      <g
         id="g12"
         transform="scale(0.1)">
        <path
           d="m 1706.29,3018.49 v 309.77 h 146.89 v -765.37 h -146.89 v 308.72 H 1444 v -308.72 h -146.8 v 765.37 H 1444 v -309.77 h 262.29"
           style="fill:#2a5fad;fill-opacity:1;fill-rule:nonzero;stroke:none"
           id="path14"
           inkscape:connector-curvature="0" />
        <path
           d="m 2500.21,3328.26 v -146.8 h -335.78 v -162.97 h 291.48 v -146.88 h -291.48 v -161.92 h 335.78 v -146.8 h -410.22 c -6.51,0 -13.02,2.21 -17.32,7.56 l -47.47,47.47 c -5.36,4.31 -7.56,10.81 -7.56,17.32 V 3256 c 0,6.42 2.2,12.92 7.56,17.23 l 47.47,47.46 c 4.3,4.4 10.81,7.57 17.32,7.57 h 410.22"
           style="fill:#2a5fad;fill-opacity:1;fill-rule:nonzero;stroke:none"
           id="path16"
           inkscape:connector-curvature="0" />
        <path
           d="m 2727.27,2562.89 c -6.51,0 -13.01,2.21 -17.32,7.56 l -47.47,47.47 c -5.45,4.31 -7.56,10.81 -7.56,17.32 v 693.02 h 146.8 v -618.57 h 319.52 v -146.8 h -393.97"
           style="fill:#2a5fad;fill-opacity:1;fill-rule:nonzero;stroke:none"
           id="path18"
           inkscape:connector-curvature="0" />
        <path
           d="m 3909.54,3328.26 v -765.37 h -146.8 v 423.17 l -119.81,-250.43 c -4.31,-8.62 -12.92,-14.07 -21.62,-14.07 h -86.32 c -9.76,0 -18.37,5.45 -22.68,14.07 l -119.81,250.43 v -423.17 h -146.79 v 765.37 h 146.79 l 185.65,-388.62 184.59,388.62 h 146.8"
           style="fill:#2a5fad;fill-opacity:1;fill-rule:nonzero;stroke:none"
           id="path20"
           inkscape:connector-curvature="0" />
        <path
           d="m 4473.51,3018.49 v 309.77 h 146.88 v -765.37 h -146.88 v 308.72 h -262.3 v -308.72 h -146.8 v 765.37 h 146.8 v -309.77 h 262.3"
           style="fill:#2a5fad;fill-opacity:1;fill-rule:nonzero;stroke:none"
           id="path22"
           inkscape:connector-curvature="0" />
        <path
           d="m 5175.66,2780.98 v 328.13 c 0,6.51 -3.25,13.01 -7.56,17.32 l -46.41,47.47 c -5.45,4.31 -11.87,7.56 -18.37,7.56 h -131.68 c -6.5,0 -11.86,-3.25 -17.31,-7.56 l -46.41,-47.47 c -5.37,-4.31 -7.56,-10.81 -7.56,-17.32 v -328.13 c 0,-6.5 2.19,-11.87 7.56,-17.31 l 46.41,-46.42 c 5.45,-5.36 10.81,-7.56 17.31,-7.56 h 131.68 c 6.5,0 12.92,2.2 18.37,7.56 l 46.41,46.42 c 4.31,5.44 7.56,10.81 7.56,17.31 z m 34.55,510.62 76.65,-75.6 c 22.68,-22.68 35.6,-53.97 35.6,-86.32 v -368.12 c 0,-32.44 -12.92,-63.73 -35.6,-86.41 l -76.65,-76.65 c -22.68,-22.68 -53.97,-35.61 -86.41,-35.61 h -171.58 c -32.44,0 -64.79,11.88 -87.46,35.61 l -75.6,76.65 c -22.68,22.68 -35.6,53.97 -35.6,86.41 v 368.12 c 0,32.35 12.92,63.64 35.6,86.32 l 75.6,75.6 c 23.73,23.74 55.02,36.66 87.46,36.66 h 171.58 c 32.44,0 62.67,-13.98 86.41,-36.66"
           style="fill:#2a5fad;fill-opacity:1;fill-rule:nonzero;stroke:none"
           id="path24"
           inkscape:connector-curvature="0" />
        <path
           d="m 5524.72,2562.89 c -6.51,0 -13.02,2.21 -17.32,7.56 l -47.47,47.47 c -5.45,4.31 -7.56,10.81 -7.56,17.32 v 693.02 h 146.8 v -618.57 h 319.52 v -146.8 h -393.97"
           style="fill:#2a5fad;fill-opacity:1;fill-rule:nonzero;stroke:none"
           id="path26"
           inkscape:connector-curvature="0" />
        <path
           d="m 5908.14,3181.46 v 146.8 h 552.72 v -146.8 H 6257.9 v -618.57 h -146.8 v 618.57 h -202.96"
           style="fill:#2a5fad;fill-opacity:1;fill-rule:nonzero;stroke:none"
           id="path28"
           inkscape:connector-curvature="0" />
        <path
           d="m 7029.14,3320.69 47.47,-47.46 c 4.3,-4.31 7.56,-10.81 7.56,-17.23 v -37.79 l -321.72,-508.52 h 317.41 v -146.8 h -438.27 c -6.51,0 -13.01,2.21 -17.32,7.56 l -47.47,47.47 c -4.3,4.31 -7.56,10.81 -7.56,17.32 v 44.22 l 317.42,502 h -321.72 v 146.8 h 446.89 c 6.5,0 13,-3.17 17.31,-7.57"
           style="fill:#2a5fad;fill-opacity:1;fill-rule:nonzero;stroke:none"
           id="path30"
           inkscape:connector-curvature="0" />
        <path
           d="m 1704.58,1932.98 v 301.34 h 78.75 V 1534 h -78.75 v 333.88 H 1375.95 V 1534 h -78.75 v 700.32 h 78.75 v -301.34 h 328.63"
           style="fill:#2a5fad;fill-opacity:1;fill-rule:nonzero;stroke:none"
           id="path32"
           inkscape:connector-curvature="0" />
        <path
           d="m 2258.98,1827.98 c -8.4,100.8 -53.55,155.4 -128.1,155.4 -72.44,0 -118.64,-53.55 -133.34,-155.4 z m -263.54,-57.74 c 3.15,-120.74 53.54,-185.84 143.84,-185.84 54.6,0 87.15,20.99 115.5,75.59 l 68.24,-8.39 c -30.45,-86.11 -93.44,-130.2 -184.79,-130.2 -133.34,0 -218.39,99.75 -218.39,256.19 0,161.69 84,267.74 214.19,267.74 122.85,0 201.6,-99.75 201.6,-254.1 0,-3.14 0,-11.54 -1.05,-20.99 h -339.14"
           style="fill:#2a5fad;fill-opacity:1;fill-rule:nonzero;stroke:none"
           id="path34"
           inkscape:connector-curvature="0" />
        <path
           d="M 2537.23,2237.46 V 1534 h -77.7 v 703.46 h 77.7"
           style="fill:#2a5fad;fill-opacity:1;fill-rule:nonzero;stroke:none"
           id="path36"
           inkscape:connector-curvature="0" />
        <path
           d="m 2752.47,2031.67 c 6.3,-17.84 9.45,-41.99 9.45,-68.24 31.5,55.65 76.65,81.9 144.9,81.9 69.29,0 112.34,-27.3 137.54,-87.15 33.6,58.8 82.94,87.15 153.29,87.15 58.8,0 105,-23.1 128.1,-64.05 16.8,-29.4 18.9,-48.3 18.9,-142.79 V 1534 h -73.5 v 304.49 c 0,65.1 -2.1,81.89 -14.7,102.89 -15.75,24.15 -43.05,37.8 -81.89,37.8 -44.11,0 -79.8,-19.95 -99.75,-55.65 -13.65,-22.05 -18.9,-50.39 -18.9,-95.55 V 1534 h -73.5 v 292.94 c 0,76.65 -1.05,89.25 -11.55,108.14 -14.7,28.35 -45.15,45.15 -83.99,45.15 -44.1,0 -82.95,-21 -101.85,-56.7 -13.65,-25.2 -18.9,-54.6 -18.9,-99.75 V 1534 h -73.5 v 343.34 c 0,102.89 -1.05,112.34 -12.6,154.33 h 72.45"
           style="fill:#2a5fad;fill-opacity:1;fill-rule:nonzero;stroke:none"
           id="path38"
           inkscape:connector-curvature="0" />
        <path
           d="m 3568.32,2237.46 v -264.58 c 36.75,49.35 81.89,72.45 142.79,72.45 59.85,0 112.35,-26.25 137.55,-68.25 17.84,-30.45 22.04,-58.8 22.04,-157.5 V 1534 h -73.49 v 281.38 c 0,72.46 -3.15,94.51 -15.75,117.6 -16.8,30.45 -46.2,47.25 -86.1,47.25 -45.15,0 -83.99,-23.1 -106.04,-61.95 -14.7,-26.25 -21,-61.95 -21,-110.24 V 1534 h -73.5 v 703.46 h 73.5"
           style="fill:#2a5fad;fill-opacity:1;fill-rule:nonzero;stroke:none"
           id="path40"
           inkscape:connector-curvature="0" />
        <path
           d="m 4068.12,1785.99 c 0,-121.8 55.64,-201.59 141.74,-201.59 85.05,0 141.75,79.79 141.75,199.49 0,118.64 -56.7,198.44 -141.75,198.44 -84,0 -141.74,-79.8 -141.74,-196.34 z m 359.08,-3.15 c 0,-153.3 -89.24,-261.44 -217.34,-261.44 -129.14,0 -217.34,107.09 -217.34,265.63 0,150.15 90.3,258.3 217.34,258.3 128.1,0 217.34,-107.09 217.34,-262.49"
           style="fill:#2a5fad;fill-opacity:1;fill-rule:nonzero;stroke:none"
           id="path42"
           inkscape:connector-curvature="0" />
        <path
           d="M 4628.82,2237.46 V 1534 h -77.7 v 703.46 h 77.7"
           style="fill:#2a5fad;fill-opacity:1;fill-rule:nonzero;stroke:none"
           id="path44"
           inkscape:connector-curvature="0" />
        <path
           d="m 5002.6,2031.67 v -59.84 h -118.64 l -5.25,-251.99 v -51.45 c 0,-63 11.54,-80.85 55.65,-80.85 22.04,0 49.34,6.3 71.39,17.85 v -65.09 c -33.6,-12.6 -57.75,-16.8 -88.2,-16.8 -49.34,0 -86.09,16.8 -102.89,47.25 -9.45,16.79 -12.6,34.64 -12.6,70.35 0,9.44 0,26.24 1.05,41.99 l 1.05,38.85 6.3,249.89 h -74.55 v 59.84 h 76.65 l 3.15,143.85 h 71.39 l -2.1,-143.85 h 117.6"
           style="fill:#2a5fad;fill-opacity:1;fill-rule:nonzero;stroke:none"
           id="path46"
           inkscape:connector-curvature="0" />
        <path
           d="m 5432.05,2031.67 v -54.59 L 5146.46,1594.9 H 5426.8 V 1534 h -367.49 v 57.74 l 282.44,379.04 h -260.39 v 60.89 h 350.69"
           style="fill:#2a5fad;fill-opacity:1;fill-rule:nonzero;stroke:none"
           id="path48"
           inkscape:connector-curvature="0" />
        <path
           d="m 5741.8,1826.94 v -57.75 h -287.69 v 57.75 h 287.69"
           style="fill:#2a5fad;fill-opacity:1;fill-rule:nonzero;stroke:none"
           id="path50"
           inkscape:connector-curvature="0" />
        <path
           d="m 5831.04,1534 v 700.32 h 80.84 V 1534 h -80.84"
           style="fill:#2a5fad;fill-opacity:1;fill-rule:nonzero;stroke:none"
           id="path52"
           inkscape:connector-curvature="0" />
        <path
           d="m 6134.47,2031.67 c 7.35,-20.99 10.5,-40.94 10.5,-72.44 33.6,57.75 84,86.1 150.15,86.1 68.24,0 120.74,-30.45 142.79,-80.85 13.65,-32.55 15.75,-46.2 15.75,-144.9 V 1534 h -73.5 v 281.38 c 0,75.6 -2.1,93.45 -13.65,117.6 -15.75,30.45 -45.14,47.25 -86.09,47.25 -45.15,0 -86.1,-23.1 -109.2,-61.95 -14.7,-26.25 -22.05,-58.79 -22.05,-106.04 V 1534 h -73.5 v 328.63 c 0,118.65 0,122.85 -11.54,169.04 h 70.34"
           style="fill:#2a5fad;fill-opacity:1;fill-rule:nonzero;stroke:none"
           id="path54"
           inkscape:connector-curvature="0" />
        <path
           d="m 6864.21,1895.18 c -7.34,60.9 -39.89,89.25 -101.84,89.25 -56.7,0 -95.55,-30.45 -95.55,-74.54 0,-40.96 21,-56.7 115.5,-84.01 81.89,-24.15 112.34,-38.85 133.34,-63 18.9,-22.04 28.35,-51.44 28.35,-86.09 0,-95.55 -69.3,-155.39 -180.59,-155.39 -120.75,0 -187.95,59.84 -187.95,166.94 h 71.4 c 6.3,-70.35 44.1,-105 115.5,-105 65.1,0 106.04,34.65 106.04,87.15 0,27.3 -10.49,45.15 -33.6,58.8 -16.79,10.5 -23.1,12.6 -109.19,39.9 -96.6,29.4 -133.34,66.15 -133.34,135.44 0,84 69.29,140.7 171.14,140.7 106.04,0 166.94,-53.55 172.19,-150.15 h -71.4"
           style="fill:#2a5fad;fill-opacity:1;fill-rule:nonzero;stroke:none"
           id="path56"
           inkscape:connector-curvature="0" />
        <path
           d="m 7282.11,2031.67 v -59.84 h -118.64 l -5.25,-251.99 v -51.45 c 0,-63 11.55,-80.85 55.65,-80.85 22.04,0 49.34,6.3 71.39,17.85 v -65.09 c -33.59,-12.6 -57.75,-16.8 -88.19,-16.8 -49.35,0 -86.1,16.8 -102.9,47.25 -9.45,16.79 -12.6,34.64 -12.6,70.35 0,9.44 0,26.24 1.05,41.99 l 1.05,38.85 6.3,249.89 h -74.55 v 59.84 h 76.65 l 3.15,143.85 h 71.4 l -2.1,-143.85 h 117.59"
           style="fill:#2a5fad;fill-opacity:1;fill-rule:nonzero;stroke:none"
           id="path58"
           inkscape:connector-curvature="0" />
        <path
           d="M 7470.07,2031.67 V 1534 h -77.7 v 497.67 z m 14.7,157.5 c 0,-30.45 -22.06,-52.5 -53.55,-52.5 -30.45,0 -53.55,22.05 -53.55,52.5 0,31.5 23.1,54.6 54.6,54.6 30.44,0 52.5,-23.1 52.5,-54.6"
           style="fill:#2a5fad;fill-opacity:1;fill-rule:nonzero;stroke:none"
           id="path60"
           inkscape:connector-curvature="0" />
        <path
           d="m 7843.85,2031.67 v -59.84 h -118.64 l -5.25,-251.99 v -51.45 c 0,-63 11.54,-80.85 55.65,-80.85 22.04,0 49.34,6.3 71.39,17.85 v -65.09 c -33.6,-12.6 -57.75,-16.8 -88.2,-16.8 -49.34,0 -86.09,16.8 -102.89,47.25 -9.45,16.79 -12.6,34.64 -12.6,70.35 0,9.44 0,26.24 1.05,41.99 l 1.05,38.85 6.3,249.89 h -74.55 v 59.84 h 76.65 l 3.15,143.85 h 71.39 l -2.1,-143.85 h 117.6"
           style="fill:#2a5fad;fill-opacity:1;fill-rule:nonzero;stroke:none"
           id="path62"
           inkscape:connector-curvature="0" />
        <path
           d="m 8025.5,2031.67 v -304.48 c 0,-55.64 5.26,-82.95 18.9,-101.84 16.8,-24.16 47.25,-37.81 82.95,-37.81 44.1,0 79.8,21.01 101.84,57.76 14.71,25.19 19.96,54.59 19.96,103.94 v 282.43 h 73.49 v -346.48 c 0,-108.15 0,-114.44 11.55,-151.19 h -72.45 c -7.35,22.05 -9.45,39.9 -10.49,66.14 -29.4,-55.64 -68.25,-78.74 -132.3,-78.74 -65.1,0 -120.74,29.39 -146.99,79.79 -15.75,27.3 -19.95,57.75 -19.95,126 v 304.48 h 73.49"
           style="fill:#2a5fad;fill-opacity:1;fill-rule:nonzero;stroke:none"
           id="path64"
           inkscape:connector-curvature="0" />
        <path
           d="m 8695.4,2031.67 v -59.84 h -118.65 l -5.25,-251.99 v -51.45 c 0,-63 11.55,-80.85 55.65,-80.85 22.04,0 49.34,6.3 71.39,17.85 v -65.09 c -33.59,-12.6 -57.74,-16.8 -88.19,-16.8 -49.35,0 -86.1,16.8 -102.9,47.25 -9.45,16.79 -12.6,34.64 -12.6,70.35 0,9.44 0,26.24 1.05,41.99 l 1.05,38.85 6.3,249.89 h -74.54 v 59.84 h 76.64 l 3.15,143.85 h 71.4 l -2.1,-143.85 h 117.6"
           style="fill:#2a5fad;fill-opacity:1;fill-rule:nonzero;stroke:none"
           id="path66"
           inkscape:connector-curvature="0" />
        <path
           d="m 9200.44,2234.32 196.35,-614.23 197.39,614.23 h 118.64 V 1534 h -74.54 v 621.57 L 9436.68,1534 h -78.74 l -201.59,621.57 V 1534 h -74.55 v 700.32 h 118.64"
           style="fill:#2a5fad;fill-opacity:1;fill-rule:nonzero;stroke:none"
           id="path68"
           inkscape:connector-curvature="0" />
        <path
           d="m 10153.8,1803.84 c -167.96,-29.4 -226.75,-65.1 -226.75,-133.35 0,-51.44 38.84,-87.15 96.55,-87.15 48.3,0 90.3,23.11 111.3,61.96 12.6,24.15 18.9,57.74 18.9,109.19 z m -284.5,97.64 c 10.49,93.45 75.59,143.85 185.8,143.85 80.9,0 140.7,-30.45 159.6,-81.9 9.5,-25.19 11.6,-49.34 11.6,-111.3 v -186.89 c 0,-80.84 2.1,-96.59 13.6,-131.24 h -70.3 c -7.4,23.09 -8.4,34.65 -11.6,67.19 -29.4,-53.54 -77.7,-79.79 -145.9,-79.79 -97.66,0 -160.65,56.7 -160.65,143.84 0,69.29 39.9,120.75 115.49,149.1 48.26,17.84 94.46,28.35 186.86,44.09 v 21.01 c 0,74.54 -28.3,102.89 -101.8,102.89 -64.06,0 -99.76,-25.2 -110.26,-80.85 h -72.44"
           style="fill:#2a5fad;fill-opacity:1;fill-rule:nonzero;stroke:none"
           id="path70"
           inkscape:connector-curvature="0" />
        <path
           d="M 10457.3,2031.67 V 1534 h -77.7 v 497.67 z m 14.7,157.5 c 0,-30.45 -22.1,-52.5 -53.6,-52.5 -30.4,0 -53.5,22.05 -53.5,52.5 0,31.5 23.1,54.6 54.6,54.6 30.4,0 52.5,-23.1 52.5,-54.6"
           style="fill:#2a5fad;fill-opacity:1;fill-rule:nonzero;stroke:none"
           id="path72"
           inkscape:connector-curvature="0" />
        <path
           d="m 10669.4,2031.67 c 7.3,-20.99 10.5,-40.94 10.5,-72.44 33.6,57.75 84,86.1 150.1,86.1 68.3,0 120.8,-30.45 142.8,-80.85 13.7,-32.55 15.8,-46.2 15.8,-144.9 V 1534 h -73.5 v 281.38 c 0,75.6 -2.1,93.45 -13.7,117.6 -15.7,30.45 -45.1,47.25 -86.1,47.25 -45.1,0 -86.1,-23.1 -109.2,-61.95 -14.7,-26.25 -22,-58.79 -22,-106.04 V 1534 h -73.5 v 328.63 c 0,118.65 0,122.85 -11.6,169.04 h 70.4"
           style="fill:#2a5fad;fill-opacity:1;fill-rule:nonzero;stroke:none"
           id="path74"
           inkscape:connector-curvature="0" />
        <path
           d="m 11460,2031.67 v -54.59 l -285.6,-382.18 h 280.4 V 1534 h -367.5 v 57.74 l 282.4,379.04 h -260.4 v 60.89 h 350.7"
           style="fill:#2a5fad;fill-opacity:1;fill-rule:nonzero;stroke:none"
           id="path76"
           inkscape:connector-curvature="0" />
        <path
           d="m 2252.28,5157.04 v 723.24 H 2595 V 4093.61 h -342.72 v 720.71 H 1639.92 V 4093.61 H 1297.2 v 1786.67 h 342.72 v -723.24 h 612.36"
           style="fill:#2a5fad;fill-opacity:1;fill-rule:nonzero;stroke:none"
           id="path78"
           inkscape:connector-curvature="0" />
        <path
           d="m 3348.44,4093.61 h -342.72 v 1786.67 h 342.72 V 4093.61"
           style="fill:#2a5fad;fill-opacity:1;fill-rule:nonzero;stroke:none"
           id="path80"
           inkscape:connector-curvature="0" />
        <path
           d="M 5205.89,5879.43 V 4093.61 h -342.86 v 988.51 l -240.99,-505.84 c -7.26,-15.26 -22.68,-25 -39.61,-25 h -270.27 c -16.94,0 -32.36,9.74 -39.62,25 l -240.98,505.84 v -988.51 h -342.9 v 1785.82 h 342.9 l 415.74,-872.73 415.73,872.73 h 342.86"
           style="fill:#2a5fad;fill-opacity:1;fill-rule:nonzero;stroke:none"
           id="path82"
           inkscape:connector-curvature="0" />
      </g>
    </g>
  </g>
</svg>
