<?xml version="1.0" encoding="UTF-8" standalone="no"?>
<svg
   xmlns:dc="http://purl.org/dc/elements/1.1/"
   xmlns:cc="http://creativecommons.org/ns#"
   xmlns:rdf="http://www.w3.org/1999/02/22-rdf-syntax-ns#"
   xmlns:svg="http://www.w3.org/2000/svg"
   xmlns="http://www.w3.org/2000/svg"
   xmlns:sodipodi="http://sodipodi.sourceforge.net/DTD/sodipodi-0.dtd"
   xmlns:inkscape="http://www.inkscape.org/namespaces/inkscape"
   version="1.1"
   id="svg5148"
   width="356.69183"
   height="108.52695"
   viewBox="0 0 356.69183 108.52695"
   sodipodi:docname="qrlogo.svg"
   inkscape:version="1.0.2 (e86c870879, 2021-01-15)">
  <metadata
     id="metadata5154">
    <rdf:RDF>
      <cc:Work
         rdf:about="">
        <dc:format>image/svg+xml</dc:format>
        <dc:type
           rdf:resource="http://purl.org/dc/dcmitype/StillImage" />
        <dc:title></dc:title>
      </cc:Work>
    </rdf:RDF>
  </metadata>
  <defs
     id="defs5152">
    <filter
       inkscape:collect="always"
       style="color-interpolation-filters:sRGB"
       id="filter18596"
       x="-1.6252512e-05"
       width="1.0000325"
       y="-2.3453409e-05"
       height="1.0000468">
      <feGaussianBlur
         inkscape:collect="always"
         stdDeviation="0.0079230994"
         id="feGaussianBlur18598" />
    </filter>
    <clipPath
       clipPathUnits="userSpaceOnUse"
       id="clipPath11577">
      <path
         d="M 1800.98,1601.47 H 928.906 c -12.285,0 -22.242,-9.95 -22.242,-22.24 0,-12.28 9.957,-22.23 22.242,-22.23 h 875.454 c -3.09,9.07 -4.84,18.75 -4.84,28.84 0,5.35 0.56,10.55 1.46,15.63 z"
         id="path11575" />
    </clipPath>
    <linearGradient
       x1="0"
       y1="0"
       x2="1"
       y2="0"
       gradientUnits="userSpaceOnUse"
       gradientTransform="matrix(-925.758,0,0,925.758,1832.42,1579.23)"
       spreadMethod="pad"
       id="linearGradient11591">
      <stop
         style="stop-opacity:1;stop-color:#26376e"
         offset="0"
         id="stop11579" />
      <stop
         style="stop-opacity:1;stop-color:#26376e"
         offset="0"
         id="stop11581" />
      <stop
         style="stop-opacity:1;stop-color:#26376e"
         offset="0.26062374"
         id="stop11583" />
      <stop
         style="stop-opacity:1;stop-color:#40bb6a"
         offset="0.515997"
         id="stop11585" />
      <stop
         style="stop-opacity:1;stop-color:#f2ef1d"
         offset="0.765377"
         id="stop11587" />
      <stop
         style="stop-opacity:1;stop-color:#ef2e32"
         offset="1"
         id="stop11589" />
    </linearGradient>
    <clipPath
       clipPathUnits="userSpaceOnUse"
       id="clipPath11601">
      <path
         d="M 4152.32,1601.47 H 1977.71 c 0.9,-5.08 1.46,-10.28 1.46,-15.63 0,-10.09 -1.75,-19.77 -4.84,-28.84 h 2177.99 c 12.28,0 22.24,9.95 22.24,22.23 0,12.29 -9.96,22.24 -22.24,22.24 z"
         id="path11599" />
    </clipPath>
    <linearGradient
       x1="0"
       y1="0"
       x2="1"
       y2="0"
       gradientUnits="userSpaceOnUse"
       gradientTransform="matrix(2228.5,0,0,-2228.5,1946.06,1579.23)"
       spreadMethod="pad"
       id="linearGradient11615-5">
      <stop
         style="stop-opacity:1;stop-color:#26376e"
         offset="0"
         id="stop11603-0" />
      <stop
         style="stop-opacity:1;stop-color:#26376e"
         offset="0"
         id="stop11605-5" />
      <stop
         style="stop-opacity:1;stop-color:#26376e"
         offset="0.26062374"
         id="stop11607-9" />
      <stop
         style="stop-opacity:1;stop-color:#40bb6a"
         offset="0.515997"
         id="stop11609-2" />
      <stop
         style="stop-opacity:1;stop-color:#f2ef1d"
         offset="0.765377"
         id="stop11611-68" />
      <stop
         style="stop-opacity:1;stop-color:#ef2e32"
         offset="1"
         id="stop11613-5" />
    </linearGradient>
  </defs>
  <sodipodi:namedview
     pagecolor="#ffffff"
     bordercolor="#666666"
     borderopacity="1"
     objecttolerance="10"
     gridtolerance="10"
     guidetolerance="10"
     inkscape:pageopacity="0"
     inkscape:pageshadow="2"
     inkscape:window-width="1530"
     inkscape:window-height="991"
     id="namedview5150"
     showgrid="false"
     inkscape:zoom="0.99977636"
     inkscape:cx="132.12456"
     inkscape:cy="153.20667"
     inkscape:window-x="26"
     inkscape:window-y="23"
     inkscape:window-maximized="0"
     inkscape:current-layer="g5156" />
  <g
     inkscape:groupmode="layer"
     inkscape:label="Image"
     id="g5156"
     transform="translate(10.263957,-115.75335)">
    <g
       id="g5583"
       transform="matrix(0.50957814,0,0,0.50956459,180.52308,185.7321)"
       style="stroke:#008e1c;stroke-width:1.96244;stroke-opacity:1;fill:#008e1c;fill-opacity:1">
      <path
         d="M 1017.7162,88.588499 H 987.85655 V 54.842882 c 0,-1.863024 -1.5164,-3.378828 -3.37925,-3.378828 -1.86332,0 -3.37938,1.515804 -3.37938,3.378828 V 91.81178 c 0,1.473576 1.1988,2.672124 2.67189,2.672124 h 33.94639 c 1.625,0 2.9474,-1.322485 2.9474,-2.947459 0,-1.625706 -1.3224,-2.947946 -2.9474,-2.947946"
         style="fill:#008e1c;fill-opacity:1;fill-rule:nonzero;stroke:#008e1c;stroke-width:0.0863951;stroke-linecap:butt;stroke-linejoin:round;stroke-opacity:1;filter:url(#filter18596)"
         id="path11557"
         transform="matrix(3.0286181,0,0,3.0286181,-3295.9132,-252.01354)" />
      <path
         d="m 1040.4228,51.464054 c -1.8631,0 -3.3789,1.515804 -3.3789,3.378828 v 36.262133 c 0,1.863084 1.5158,3.378889 3.3789,3.378889 1.863,0 3.3788,-1.515805 3.3788,-3.378889 V 54.842882 c 0,-1.863024 -1.5158,-3.378828 -3.3788,-3.378828"
         style="fill:#008e1c;fill-opacity:1;fill-rule:nonzero;stroke:#008e1c;stroke-width:0.0863951;stroke-linecap:butt;stroke-linejoin:round;stroke-opacity:1;filter:url(#filter18596)"
         id="path11559"
         transform="matrix(3.0286181,0,0,3.0286181,-3295.9132,-252.01354)" />
      <path
         d="m 1085.1451,56.495376 h 5.1789 c 2.5661,0 4.7458,0.05858 6.4782,0.175136 1.669,0.110451 3.017,0.37956 4.0062,0.801228 0.9111,0.386273 1.5408,0.94097 1.9252,1.695211 0.4089,0.801838 0.6164,1.961269 0.6164,3.445952 0,1.592692 1.2955,2.888205 2.8876,2.888205 h 0.9825 c 1.592,0 2.8875,-1.295513 2.8875,-2.888205 0,-1.34189 -0.1141,-2.583702 -0.3393,-3.691264 -0.2343,-1.15455 -0.6591,-2.20414 -1.2601,-3.120701 v -6.11e-4 c -0.6054,-0.923273 -1.4273,-1.726942 -2.4427,-2.388428 -0.9856,-0.640738 -2.2322,-1.18201 -3.7047,-1.607338 -1.4438,-0.416175 -3.1799,-0.72434 -5.1601,-0.915951 -1.9563,-0.191001 -4.2697,-0.288027 -6.8767,-0.288027 h -5.1789 c -3.1769,0 -5.9815,0.118994 -8.3345,0.354542 -2.3732,0.237378 -4.437,0.594971 -6.1359,1.063625 -1.7299,0.477198 -3.1786,1.086205 -4.3051,1.809934 -1.1411,0.736544 -2.0589,1.592693 -2.7271,2.544647 -0.6706,0.957446 -1.135,2.039989 -1.3809,3.218337 -0.2344,1.12709 -0.3534,2.361579 -0.3534,3.669906 0,1.239371 0.075,2.406125 0.2227,3.4667 0.1569,1.127089 0.5017,2.169357 1.0253,3.098123 0.5308,0.942191 1.312,1.785524 2.3201,2.508033 0.9878,0.706033 2.3029,1.298564 3.909,1.761726 1.5604,0.450348 3.5173,0.799397 5.8167,1.037386 2.2805,0.236157 5.0448,0.355762 8.2161,0.355762 h 7.1226 c 2.8296,0 5.1448,0.120825 6.8803,0.359424 1.6672,0.228225 2.9627,0.609617 3.8475,1.133801 0.8201,0.484582 1.3516,1.109394 1.6238,1.910561 0.3039,0.892884 0.4577,2.041392 0.4577,3.412939 0,1.343231 -0.2197,2.486675 -0.653,3.399147 -0.415,0.874395 -1.124,1.570664 -2.1675,2.12774 -1.1008,0.587771 -2.6209,1.025182 -4.5182,1.299357 -1.9477,0.284366 -4.4424,0.428319 -7.4136,0.428319 h -6.9059 c -2.563,0 -4.7372,-0.0598 -6.4617,-0.177089 -1.6598,-0.113502 -3.0029,-0.387371 -3.9915,-0.814531 -0.9104,-0.392376 -1.5414,-0.956836 -1.9277,-1.726515 -0.4095,-0.815203 -0.6175,-1.99587 -0.6175,-3.509294 0,-1.592082 -1.2956,-2.887595 -2.8883,-2.887595 h -0.9812 c -1.5927,0 -2.8882,1.295513 -2.8882,2.887595 0,1.341828 0.1135,2.588461 0.3386,3.706458 0.2362,1.165595 0.6597,2.220128 1.2596,3.132845 0.6041,0.922297 1.4175,1.732007 2.4183,2.408749 0.9843,0.665758 2.2304,1.218075 3.7028,1.64145 1.4402,0.415687 3.1757,0.728673 5.1571,0.930597 1.9594,0.200215 4.274,0.301512 6.8797,0.301512 h 6.9059 c 2.8943,0 5.4634,-0.133029 7.6358,-0.395487 2.1883,-0.264351 4.0952,-0.659534 5.6678,-1.175847 1.5969,-0.521806 2.9413,-1.173528 3.9964,-1.936983 1.0642,-0.771144 1.9228,-1.667629 2.5507,-2.664251 0.623,-0.986615 1.0624,-2.091737 1.3065,-3.284791 0.2343,-1.146556 0.3527,-2.388429 0.3527,-3.691386 0,-1.295268 -0.07,-2.512854 -0.2087,-3.618463 -0.1452,-1.171087 -0.4668,-2.248749 -0.9575,-3.204364 -0.4967,-0.96782 -1.2082,-1.839225 -2.1138,-2.589804 -0.8989,-0.746918 -2.1058,-1.373621 -3.5893,-1.864244 -1.4426,-0.475367 -3.2244,-0.837841 -5.295,-1.07705 -2.0516,-0.237378 -4.5425,-0.358203 -7.4026,-0.358203 h -7.1226 c -2.2901,0 -4.2765,-0.04882 -5.9027,-0.145845 -1.6207,-0.09703 -3.0042,-0.259957 -4.1123,-0.485131 -1.0759,-0.219071 -1.9424,-0.494283 -2.5752,-0.818924 -0.5871,-0.300842 -1.0435,-0.67064 -1.3553,-1.099019 -0.3186,-0.436312 -0.5242,-0.934258 -0.6291,-1.522517 -0.1172,-0.650502 -0.1764,-1.411455 -0.1764,-2.260891 0,-1.324192 0.2246,-2.428094 0.6676,-3.281191 0.415,-0.801838 1.1948,-1.462104 2.3164,-1.960659 1.218,-0.541272 2.9181,-0.932427 5.0539,-1.164314 2.1944,-0.238599 5.0338,-0.360034 8.4401,-0.360034"
         style="fill:#008e1c;fill-opacity:1;fill-rule:nonzero;stroke:#008e1c;stroke-width:0.0863951;stroke-linecap:butt;stroke-linejoin:round;stroke-opacity:1;filter:url(#filter18596)"
         id="path11561"
         transform="matrix(3.0286181,0,0,3.0286181,-3295.9132,-252.01354)" />
      <path
         d="m 1169.0903,85.295653 -0.5004,0.284427 0.5004,-0.283939 4.3064,7.591835 c 0.5584,0.983809 1.6085,1.595928 2.7399,1.595928 1.135,0 2.1535,-0.585941 2.7235,-1.566576 0.5711,-0.980634 0.5761,-2.155322 0.015,-3.14151 l -19.719,-34.678472 c -1.2747,-2.240754 -3.668,-3.633292 -6.2462,-3.633292 -2.5746,0 -4.966,1.388877 -6.242,3.624749 l -19.7891,34.682988 c -0.5621,0.986615 -0.5577,2.162034 0.013,3.14389 0.5705,0.981794 1.589,1.568223 2.7247,1.568223 h 0.5577 c 1.1295,0 2.1785,-0.610228 2.7375,-1.591595 l 4.3259,-7.597327 15.9556,-28.019736 15.897,28.020407"
         style="fill:#008e1c;fill-opacity:1;fill-rule:nonzero;stroke:#008e1c;stroke-width:0.0863951;stroke-linecap:butt;stroke-linejoin:round;stroke-opacity:1;filter:url(#filter18596)"
         id="path11563"
         transform="matrix(3.0286181,0,0,3.0286181,-3295.9132,-252.01354)" />
    </g>
    <rect
       style="fill:none;stroke:#008e1c;stroke-width:7.55906;stroke-linecap:round;stroke-miterlimit:4;stroke-dasharray:none;stroke-dashoffset:0;stroke-opacity:1"
       id="rect5585"
       width="349.13278"
       height="100.96789"
       x="-6.484427"
       y="119.53288"
       rx="28.365719"
       ry="28.365719" />
  </g>
</svg>
