<svg id="Calque_1" data-name="Calque 1" xmlns="http://www.w3.org/2000/svg" xmlns:xlink="http://www.w3.org/1999/xlink" viewBox="0 0 602.39 285.792"><defs><linearGradient id="Dégradé_sans_nom_60" x1="199.82" y1="79.223" x2="69.719" y2="79.223" gradientUnits="userSpaceOnUse"><stop offset="0" stop-color="#fff"/><stop offset="0" stop-color="#263267"/><stop offset="0.095" stop-color="#263667"/><stop offset="0.189" stop-color="#274267"/><stop offset="0.282" stop-color="#285667"/><stop offset="0.375" stop-color="#2a7266"/><stop offset="0.467" stop-color="#2c9566"/><stop offset="0.516" stop-color="#2dab66"/><stop offset="0.765" stop-color="#fcea0d"/><stop offset="1" stop-color="#e5332a"/></linearGradient><linearGradient id="Dégradé_sans_nom_60-2" x1="215.79" y1="79.223" x2="528.972" y2="79.223" xlink:href="#Dégradé_sans_nom_60"/></defs><path d="M155.456,187.635H86.689V109.919a7.783,7.783,0,0,0-15.565,0v85.139a6.161,6.161,0,0,0,6.154,6.154h78.178a6.789,6.789,0,0,0,0-13.577Z" style="fill:#cecdce"/><path d="M207.749,102.137a7.791,7.791,0,0,0-7.782,7.782V193.43a7.782,7.782,0,0,0,15.564,0V109.919A7.791,7.791,0,0,0,207.749,102.137Z" style="fill:#cecdce"/><path d="M310.744,113.725h11.928c5.909,0,10.928.135,14.919.4a29.043,29.043,0,0,1,9.225,1.845,8.351,8.351,0,0,1,4.435,3.9,17.944,17.944,0,0,1,1.419,7.936,6.658,6.658,0,0,0,6.65,6.651h2.262a6.658,6.658,0,0,0,6.651-6.651,43.073,43.073,0,0,0-.781-8.5,20.46,20.46,0,0,0-2.9-7.187h0a19.1,19.1,0,0,0-5.625-5.5,31.988,31.988,0,0,0-8.532-3.7,66.9,66.9,0,0,0-11.884-2.111c-4.506-.439-9.833-.662-15.836-.662H310.744c-7.316,0-13.775.275-19.2.817a86.474,86.474,0,0,0-14.129,2.448,36.305,36.305,0,0,0-9.915,4.17,22.39,22.39,0,0,0-6.281,5.859,19.915,19.915,0,0,0-3.18,7.413,41.594,41.594,0,0,0-.814,8.451,58.147,58.147,0,0,0,.513,7.983,20.077,20.077,0,0,0,2.361,7.136,18.148,18.148,0,0,0,5.344,5.777,29.729,29.729,0,0,0,9,4.056,78.656,78.656,0,0,0,13.4,2.39,188.358,188.358,0,0,0,18.922.818h16.4a121.686,121.686,0,0,1,15.846.829,24.307,24.307,0,0,1,8.86,2.61,8.018,8.018,0,0,1,3.74,4.4,24.893,24.893,0,0,1,1.054,7.861,18.288,18.288,0,0,1-1.5,7.828,10.88,10.88,0,0,1-4.992,4.9,32.416,32.416,0,0,1-10.4,2.992,122.49,122.49,0,0,1-17.074.986H302.791c-5.9,0-10.909-.137-14.881-.406a28.694,28.694,0,0,1-9.193-1.878,8.408,8.408,0,0,1-4.439-3.975,18.515,18.515,0,0,1-1.422-8.082,6.659,6.659,0,0,0-6.652-6.651h-2.26a6.658,6.658,0,0,0-6.651,6.651,43.531,43.531,0,0,0,.78,8.535,20.427,20.427,0,0,0,2.9,7.217,19.883,19.883,0,0,0,5.569,5.546,30.143,30.143,0,0,0,8.527,3.781,68.819,68.819,0,0,0,11.878,2.143c4.512.46,9.843.694,15.843.694H318.7a149.346,149.346,0,0,0,17.584-.911,69,69,0,0,0,13.053-2.707,33.482,33.482,0,0,0,9.2-4.461,21.727,21.727,0,0,0,8.883-13.7,42.6,42.6,0,0,0,.813-8.5,67.77,67.77,0,0,0-.48-8.334,22.04,22.04,0,0,0-2.206-7.38,19.116,19.116,0,0,0-4.868-5.965,25.384,25.384,0,0,0-8.266-4.292,62.544,62.544,0,0,0-12.195-2.481,151.736,151.736,0,0,0-17.048-.824h-16.4c-5.274,0-9.848-.113-13.594-.336a69.6,69.6,0,0,1-9.47-1.118,23.718,23.718,0,0,1-5.931-1.886,8.688,8.688,0,0,1-3.122-2.531,8.27,8.27,0,0,1-1.449-3.506,29.863,29.863,0,0,1-.406-5.207,16.414,16.414,0,0,1,1.538-7.556,10.5,10.5,0,0,1,5.335-4.517,40.374,40.374,0,0,1,11.638-2.68A186.748,186.748,0,0,1,310.744,113.725Z" style="fill:#cecdce"/><path d="M504.07,180.052l-1.153.654,1.153-.654,9.917,17.484a7.268,7.268,0,0,0,6.31,3.676,7.257,7.257,0,0,0,6.308-10.843l-45.413-79.863a16.549,16.549,0,0,0-28.76-.021L406.858,190.36a7.257,7.257,0,0,0,6.3,10.852h1.284a7.27,7.27,0,0,0,6.3-3.665l9.962-17.5,36.745-64.529Z" style="fill:#cecdce"/><path d="M219.611,73.824,231.05,65a3.69,3.69,0,1,0-4.9-5.519L215.1,68A12.673,12.673,0,0,1,219.611,73.824Z" style="fill:#28306c"/><path d="M200.539,68l-11.05-8.521a3.69,3.69,0,0,0-4.9,5.519l11.44,8.828A12.676,12.676,0,0,1,200.539,68Z" style="fill:#28306c"/><path d="M211.512,66.224l0-19.136a3.69,3.69,0,0,0-7.38,0V66.224a12.583,12.583,0,0,1,7.385,0Z" style="fill:#28306c"/><path d="M195.4,76.1H72.844a3.126,3.126,0,0,0,0,6.251H195.877A12.217,12.217,0,0,1,195.4,76.1Z" style="fill:url(#Dégradé_sans_nom_60)"/><path d="M525.847,76.1H220.239a12.249,12.249,0,0,1-.476,6.251H525.847a3.126,3.126,0,0,0,0-6.251Z" style="fill:url(#Dégradé_sans_nom_60-2)"/><path d="M207.82,72.28a6.19,6.19,0,1,0,6.19,6.19A6.19,6.19,0,0,0,207.82,72.28Z" style="fill:#cecdce"/><path d="M68.6,230.248h1.616v9.906h6.125v1.407H68.6Z" style="fill:#1d1d1b"/><path d="M85.452,238.732H79.44l-1.245,2.829H76.53l5.123-11.313h1.6l5.139,11.313H86.7Zm-.566-1.293L82.445,231.9l-2.44,5.543Z" style="fill:#1d1d1b"/><path d="M90.906,241.294a5.056,5.056,0,0,1-1.866-1.026l.6-1.261a4.967,4.967,0,0,0,1.657.946,6.1,6.1,0,0,0,2.077.363,3.75,3.75,0,0,0,2.1-.476,1.472,1.472,0,0,0,.7-1.269,1.251,1.251,0,0,0-.38-.946,2.551,2.551,0,0,0-.937-.557q-.558-.2-1.576-.436a16.262,16.262,0,0,1-2.061-.615,3.4,3.4,0,0,1-1.341-.945,2.523,2.523,0,0,1-.558-1.721,2.912,2.912,0,0,1,.477-1.633,3.275,3.275,0,0,1,1.447-1.164,5.877,5.877,0,0,1,2.408-.436,7.635,7.635,0,0,1,1.971.259,5.245,5.245,0,0,1,1.665.743l-.533,1.293a5.812,5.812,0,0,0-1.52-.686,5.635,5.635,0,0,0-1.583-.235,3.491,3.491,0,0,0-2.061.5,1.535,1.535,0,0,0-.687,1.293,1.237,1.237,0,0,0,.388.945,2.694,2.694,0,0,0,.962.566,14.712,14.712,0,0,0,1.559.428,15.792,15.792,0,0,1,2.053.615,3.441,3.441,0,0,1,1.333.937,2.465,2.465,0,0,1,.557,1.7,2.89,2.89,0,0,1-.484,1.624,3.246,3.246,0,0,1-1.471,1.163,6.076,6.076,0,0,1-2.424.429A7.745,7.745,0,0,1,90.906,241.294Z" style="fill:#1d1d1b"/><path d="M108.32,240.154v1.407h-8.21V230.248h7.984v1.406h-6.368v3.474H107.4V236.5h-5.673v3.652Z" style="fill:#1d1d1b"/><path d="M118.5,241.561l-2.44-3.475c-.3.022-.538.032-.711.032h-2.8v3.443h-1.616V230.248h4.412a5.245,5.245,0,0,1,3.459,1.05,3.562,3.562,0,0,1,1.26,2.893,3.782,3.782,0,0,1-.646,2.23,3.65,3.65,0,0,1-1.843,1.341l2.683,3.8Zm-.856-5.479a2.306,2.306,0,0,0,.808-1.891,2.281,2.281,0,0,0-.808-1.883,3.65,3.65,0,0,0-2.343-.654h-2.748v5.091H115.3A3.614,3.614,0,0,0,117.645,236.082Z" style="fill:#1d1d1b"/><path d="M127.035,230.248h1.616v11.313h-1.616Z" style="fill:#1d1d1b"/><path d="M134.065,240.938a5.55,5.55,0,0,1-2.157-2.076,5.964,5.964,0,0,1,0-5.915,5.548,5.548,0,0,1,2.157-2.078,6.685,6.685,0,0,1,6.157,0,5.508,5.508,0,0,1,2.15,2.069,6.056,6.056,0,0,1,0,5.932,5.506,5.506,0,0,1-2.15,2.068,6.677,6.677,0,0,1-6.157,0Zm5.325-1.252a4.15,4.15,0,0,0,1.568-1.56,4.588,4.588,0,0,0,0-4.444,4.15,4.15,0,0,0-1.568-1.56,4.445,4.445,0,0,0-2.238-.566,4.532,4.532,0,0,0-2.254.566,4.108,4.108,0,0,0-1.584,1.56,4.588,4.588,0,0,0,0,4.444,4.108,4.108,0,0,0,1.584,1.56,4.531,4.531,0,0,0,2.254.565A4.444,4.444,0,0,0,139.39,239.686Z" style="fill:#1d1d1b"/><path d="M155.349,230.248v11.313h-1.325l-6.788-8.437v8.437H145.62V230.248h1.325l6.788,8.436v-8.436Z" style="fill:#1d1d1b"/><path d="M158.744,230.248h1.616v11.313h-1.616Z" style="fill:#1d1d1b"/><path d="M164.586,241.294a5.056,5.056,0,0,1-1.866-1.026l.6-1.261a4.967,4.967,0,0,0,1.657.946,6.092,6.092,0,0,0,2.077.363,3.75,3.75,0,0,0,2.1-.476,1.472,1.472,0,0,0,.7-1.269,1.251,1.251,0,0,0-.38-.946,2.551,2.551,0,0,0-.937-.557q-.558-.2-1.576-.436a16.262,16.262,0,0,1-2.061-.615,3.4,3.4,0,0,1-1.341-.945,2.523,2.523,0,0,1-.558-1.721,2.912,2.912,0,0,1,.477-1.633,3.275,3.275,0,0,1,1.447-1.164,5.877,5.877,0,0,1,2.408-.436,7.635,7.635,0,0,1,1.971.259,5.245,5.245,0,0,1,1.665.743l-.533,1.293a5.812,5.812,0,0,0-1.52-.686,5.635,5.635,0,0,0-1.583-.235,3.489,3.489,0,0,0-2.061.5,1.535,1.535,0,0,0-.687,1.293,1.237,1.237,0,0,0,.388.945,2.694,2.694,0,0,0,.962.566,14.712,14.712,0,0,0,1.559.428,15.792,15.792,0,0,1,2.053.615,3.441,3.441,0,0,1,1.333.937,2.47,2.47,0,0,1,.557,1.7,2.89,2.89,0,0,1-.484,1.624,3.246,3.246,0,0,1-1.471,1.163,6.076,6.076,0,0,1-2.424.429A7.745,7.745,0,0,1,164.586,241.294Z" style="fill:#1d1d1b"/><path d="M181,238.732h-6.012l-1.245,2.829h-1.665l5.123-11.313h1.6l5.139,11.313h-1.7Zm-.566-1.293-2.441-5.543-2.44,5.543Z" style="fill:#1d1d1b"/><path d="M187.3,231.654h-3.879v-1.406h9.358v1.406H188.9v9.907h-1.6Z" style="fill:#1d1d1b"/><path d="M194.541,230.248h1.616v11.313h-1.616Z" style="fill:#1d1d1b"/><path d="M201.571,240.938a5.55,5.55,0,0,1-2.157-2.076,5.97,5.97,0,0,1,0-5.915,5.548,5.548,0,0,1,2.157-2.078,6.687,6.687,0,0,1,6.158,0,5.522,5.522,0,0,1,2.15,2.069,6.063,6.063,0,0,1,0,5.932,5.519,5.519,0,0,1-2.15,2.068,6.679,6.679,0,0,1-6.158,0Zm5.325-1.252a4.15,4.15,0,0,0,1.568-1.56,4.588,4.588,0,0,0,0-4.444,4.15,4.15,0,0,0-1.568-1.56,4.442,4.442,0,0,0-2.238-.566,4.532,4.532,0,0,0-2.254.566,4.108,4.108,0,0,0-1.584,1.56,4.588,4.588,0,0,0,0,4.444,4.108,4.108,0,0,0,1.584,1.56,4.531,4.531,0,0,0,2.254.565A4.441,4.441,0,0,0,206.9,239.686Z" style="fill:#1d1d1b"/><path d="M222.855,230.248v11.313H221.53l-6.788-8.437v8.437h-1.616V230.248h1.325l6.788,8.436v-8.436Z" style="fill:#1d1d1b"/><path d="M237.805,238.732h-6.012l-1.245,2.829h-1.664l5.123-11.313h1.6l5.14,11.313h-1.7Zm-.565-1.293L234.8,231.9l-2.44,5.543Z" style="fill:#1d1d1b"/><path d="M252.156,230.248v11.313h-1.325l-6.788-8.437v8.437h-1.616V230.248h1.325l6.788,8.436v-8.436Z" style="fill:#1d1d1b"/><path d="M255.55,230.248h4.768a6.883,6.883,0,0,1,3.184.711,5.227,5.227,0,0,1,2.158,2,6.053,6.053,0,0,1,0,5.9,5.236,5.236,0,0,1-2.158,2,6.9,6.9,0,0,1-3.184.711H255.55Zm4.671,9.906a5.227,5.227,0,0,0,2.416-.533,3.845,3.845,0,0,0,1.608-1.5,4.645,4.645,0,0,0,0-4.444,3.851,3.851,0,0,0-1.608-1.495,5.24,5.24,0,0,0-2.416-.533h-3.055v8.5Z" style="fill:#1d1d1b"/><path d="M274.079,241.294a5.056,5.056,0,0,1-1.866-1.026l.6-1.261a4.967,4.967,0,0,0,1.657.946,6.1,6.1,0,0,0,2.077.363,3.75,3.75,0,0,0,2.1-.476,1.472,1.472,0,0,0,.695-1.269,1.251,1.251,0,0,0-.38-.946,2.551,2.551,0,0,0-.937-.557q-.558-.2-1.576-.436a16.262,16.262,0,0,1-2.061-.615,3.4,3.4,0,0,1-1.341-.945,2.523,2.523,0,0,1-.558-1.721,2.912,2.912,0,0,1,.477-1.633,3.275,3.275,0,0,1,1.447-1.164,5.877,5.877,0,0,1,2.408-.436,7.635,7.635,0,0,1,1.971.259,5.245,5.245,0,0,1,1.665.743l-.533,1.293a5.812,5.812,0,0,0-1.52-.686,5.635,5.635,0,0,0-1.583-.235,3.491,3.491,0,0,0-2.061.5,1.535,1.535,0,0,0-.687,1.293,1.237,1.237,0,0,0,.388.945,2.694,2.694,0,0,0,.962.566,14.712,14.712,0,0,0,1.559.428,15.792,15.792,0,0,1,2.053.615,3.441,3.441,0,0,1,1.333.937,2.465,2.465,0,0,1,.557,1.7,2.89,2.89,0,0,1-.484,1.624,3.246,3.246,0,0,1-1.471,1.163,6.076,6.076,0,0,1-2.424.429A7.745,7.745,0,0,1,274.079,241.294Z" style="fill:#1d1d1b"/><path d="M291.154,231.3a3.949,3.949,0,0,1,0,5.786,5.241,5.241,0,0,1-3.458,1.05h-2.8v3.427h-1.616V230.248H287.7A5.241,5.241,0,0,1,291.154,231.3Zm-1.164,4.776a2.6,2.6,0,0,0,0-3.766,3.646,3.646,0,0,0-2.343-.654H284.9v5.074h2.748A3.646,3.646,0,0,0,289.99,236.074Z" style="fill:#1d1d1b"/><path d="M303,240.154v1.407H294.79V230.248h7.984v1.406h-6.368v3.474h5.673V236.5h-5.673v3.652Z" style="fill:#1d1d1b"/><path d="M307.567,240.938a5.535,5.535,0,0,1-2.143-2.068,6.063,6.063,0,0,1,0-5.932,5.522,5.522,0,0,1,2.15-2.069,6.3,6.3,0,0,1,3.071-.751,6.394,6.394,0,0,1,2.424.445,4.961,4.961,0,0,1,1.875,1.317l-1.05,1.018a4.219,4.219,0,0,0-3.184-1.342,4.613,4.613,0,0,0-2.279.566,4.1,4.1,0,0,0-1.592,1.56,4.595,4.595,0,0,0,0,4.444,4.1,4.1,0,0,0,1.592,1.56,4.613,4.613,0,0,0,2.279.565,4.223,4.223,0,0,0,3.184-1.357l1.05,1.018a5.025,5.025,0,0,1-1.883,1.325,6.36,6.36,0,0,1-2.432.453A6.243,6.243,0,0,1,307.567,240.938Z" style="fill:#1d1d1b"/><path d="M319.372,231.654h-3.88v-1.406h9.359v1.406h-3.88v9.907h-1.6Z" style="fill:#1d1d1b"/><path d="M334.175,241.561l-2.44-3.475c-.3.022-.538.032-.711.032h-2.8v3.443h-1.616V230.248h4.412a5.242,5.242,0,0,1,3.459,1.05,3.566,3.566,0,0,1,1.261,2.893,3.782,3.782,0,0,1-.647,2.23,3.65,3.65,0,0,1-1.843,1.341l2.683,3.8Zm-.856-5.479a2.306,2.306,0,0,0,.808-1.891,2.281,2.281,0,0,0-.808-1.883,3.646,3.646,0,0,0-2.343-.654h-2.748v5.091h2.748A3.611,3.611,0,0,0,333.319,236.082Z" style="fill:#1d1d1b"/><path d="M340.381,240.938a5.563,5.563,0,0,1-2.157-2.076,5.97,5.97,0,0,1,0-5.915,5.561,5.561,0,0,1,2.157-2.078,6.687,6.687,0,0,1,6.158,0,5.512,5.512,0,0,1,2.149,2.069,6.056,6.056,0,0,1,0,5.932,5.51,5.51,0,0,1-2.149,2.068,6.679,6.679,0,0,1-6.158,0Zm5.325-1.252a4.152,4.152,0,0,0,1.569-1.56,4.595,4.595,0,0,0,0-4.444,4.152,4.152,0,0,0-1.569-1.56,4.439,4.439,0,0,0-2.238-.566,4.534,4.534,0,0,0-2.254.566,4.108,4.108,0,0,0-1.584,1.56,4.595,4.595,0,0,0,0,4.444,4.108,4.108,0,0,0,1.584,1.56,4.534,4.534,0,0,0,2.254.565A4.439,4.439,0,0,0,345.706,239.686Z" style="fill:#1d1d1b"/><path d="M352.77,241.294a5.061,5.061,0,0,1-1.867-1.026l.6-1.261a4.967,4.967,0,0,0,1.657.946,6.1,6.1,0,0,0,2.078.363,3.745,3.745,0,0,0,2.1-.476,1.472,1.472,0,0,0,.695-1.269,1.251,1.251,0,0,0-.38-.946,2.543,2.543,0,0,0-.937-.557q-.558-.2-1.576-.436a16.262,16.262,0,0,1-2.061-.615,3.409,3.409,0,0,1-1.341-.945,2.523,2.523,0,0,1-.557-1.721,2.911,2.911,0,0,1,.476-1.633,3.28,3.28,0,0,1,1.447-1.164,5.88,5.88,0,0,1,2.408-.436,7.635,7.635,0,0,1,1.971.259,5.245,5.245,0,0,1,1.665.743l-.533,1.293a5.821,5.821,0,0,0-1.519-.686,5.642,5.642,0,0,0-1.584-.235,3.489,3.489,0,0,0-2.061.5,1.536,1.536,0,0,0-.686,1.293,1.236,1.236,0,0,0,.387.945,2.7,2.7,0,0,0,.962.566,14.85,14.85,0,0,0,1.559.428,15.744,15.744,0,0,1,2.053.615,3.444,3.444,0,0,1,1.334.937,2.475,2.475,0,0,1,.557,1.7,2.9,2.9,0,0,1-.484,1.624,3.249,3.249,0,0,1-1.472,1.163,6.07,6.07,0,0,1-2.423.429A7.741,7.741,0,0,1,352.77,241.294Z" style="fill:#1d1d1b"/><path d="M363.969,240.938a5.529,5.529,0,0,1-2.141-2.068,6.049,6.049,0,0,1,0-5.932,5.519,5.519,0,0,1,2.149-2.069,6.3,6.3,0,0,1,3.07-.751,6.4,6.4,0,0,1,2.425.445,4.961,4.961,0,0,1,1.875,1.317L370.3,232.9a4.216,4.216,0,0,0-3.184-1.342,4.619,4.619,0,0,0-2.279.566,4.1,4.1,0,0,0-1.592,1.56,4.595,4.595,0,0,0,0,4.444,4.1,4.1,0,0,0,1.592,1.56,4.618,4.618,0,0,0,2.279.565,4.223,4.223,0,0,0,3.184-1.357l1.051,1.018a5.025,5.025,0,0,1-1.883,1.325,6.367,6.367,0,0,1-2.432.453A6.244,6.244,0,0,1,363.969,240.938Z" style="fill:#1d1d1b"/><path d="M375.435,240.938a5.563,5.563,0,0,1-2.157-2.076,5.97,5.97,0,0,1,0-5.915,5.561,5.561,0,0,1,2.157-2.078,6.687,6.687,0,0,1,6.158,0,5.522,5.522,0,0,1,2.15,2.069,6.063,6.063,0,0,1,0,5.932,5.519,5.519,0,0,1-2.15,2.068,6.679,6.679,0,0,1-6.158,0Zm5.325-1.252a4.152,4.152,0,0,0,1.569-1.56,4.588,4.588,0,0,0,0-4.444,4.152,4.152,0,0,0-1.569-1.56,4.439,4.439,0,0,0-2.238-.566,4.534,4.534,0,0,0-2.254.566,4.106,4.106,0,0,0-1.583,1.56,4.588,4.588,0,0,0,0,4.444,4.106,4.106,0,0,0,1.583,1.56,4.534,4.534,0,0,0,2.254.565A4.439,4.439,0,0,0,380.76,239.686Z" style="fill:#1d1d1b"/><path d="M394.862,231.3a3.949,3.949,0,0,1,0,5.786,5.242,5.242,0,0,1-3.459,1.05h-2.8v3.427h-1.617V230.248H391.4A5.242,5.242,0,0,1,394.862,231.3Zm-1.164,4.776a2.6,2.6,0,0,0,0-3.766,3.646,3.646,0,0,0-2.343-.654h-2.747v5.074h2.747A3.646,3.646,0,0,0,393.7,236.074Z" style="fill:#1d1d1b"/><path d="M402.829,237.649v3.912h-1.6v-3.944l-4.491-7.369h1.729l3.62,5.963,3.636-5.963h1.6Z" style="fill:#1d1d1b"/><path d="M415.322,240.938a5.559,5.559,0,0,1-2.158-2.076,5.977,5.977,0,0,1,0-5.915,5.557,5.557,0,0,1,2.158-2.078,6.687,6.687,0,0,1,6.158,0,5.519,5.519,0,0,1,2.149,2.069,6.063,6.063,0,0,1,0,5.932,5.517,5.517,0,0,1-2.149,2.068,6.679,6.679,0,0,1-6.158,0Zm5.325-1.252a4.15,4.15,0,0,0,1.568-1.56,4.588,4.588,0,0,0,0-4.444,4.15,4.15,0,0,0-1.568-1.56,4.443,4.443,0,0,0-2.239-.566,4.528,4.528,0,0,0-2.253.566,4.108,4.108,0,0,0-1.584,1.56,4.588,4.588,0,0,0,0,4.444,4.108,4.108,0,0,0,1.584,1.56,4.527,4.527,0,0,0,2.253.565A4.442,4.442,0,0,0,420.647,239.686Z" style="fill:#1d1d1b"/><path d="M428.493,231.654V235.6h5.673v1.39h-5.673v4.574h-1.616V230.248h7.984v1.406Z" style="fill:#1d1d1b"/><path d="M448.7,238.732h-6.012l-1.244,2.829h-1.665l5.123-11.313h1.6l5.14,11.313h-1.7Zm-.566-1.293-2.44-5.543-2.44,5.543Z" style="fill:#1d1d1b"/><path d="M455.152,240.938a5.529,5.529,0,0,1-2.141-2.068,6.049,6.049,0,0,1,0-5.932,5.519,5.519,0,0,1,2.149-2.069,6.3,6.3,0,0,1,3.07-.751,6.4,6.4,0,0,1,2.425.445,4.953,4.953,0,0,1,1.875,1.317l-1.051,1.018a4.216,4.216,0,0,0-3.184-1.342,4.619,4.619,0,0,0-2.279.566,4.1,4.1,0,0,0-1.592,1.56,4.595,4.595,0,0,0,0,4.444,4.1,4.1,0,0,0,1.592,1.56,4.618,4.618,0,0,0,2.279.565,4.223,4.223,0,0,0,3.184-1.357l1.051,1.018a5.017,5.017,0,0,1-1.883,1.325,6.363,6.363,0,0,1-2.432.453A6.244,6.244,0,0,1,455.152,240.938Z" style="fill:#1d1d1b"/><path d="M466.957,231.654h-3.878v-1.406h9.357v1.406h-3.878v9.907h-1.6Z" style="fill:#1d1d1b"/><path d="M474.2,230.248h1.615v11.313H474.2Z" style="fill:#1d1d1b"/><path d="M488.936,230.248v11.313h-1.324l-6.788-8.437v8.437h-1.617V230.248h1.326l6.788,8.436v-8.436Z" style="fill:#1d1d1b"/><path d="M492.33,230.248h1.617v11.313H492.33Z" style="fill:#1d1d1b"/><path d="M497.341,230.248h4.768a6.889,6.889,0,0,1,3.184.711,5.225,5.225,0,0,1,2.157,2,6.053,6.053,0,0,1,0,5.9,5.234,5.234,0,0,1-2.157,2,6.9,6.9,0,0,1-3.184.711h-4.768Zm4.67,9.906a5.235,5.235,0,0,0,2.417-.533,3.843,3.843,0,0,0,1.607-1.5,4.645,4.645,0,0,0,0-4.444,3.849,3.849,0,0,0-1.607-1.495,5.247,5.247,0,0,0-2.417-.533h-3.055v8.5Z" style="fill:#1d1d1b"/><path d="M518.9,240.154v1.407h-8.209V230.248h7.983v1.406h-6.368v3.474h5.673V236.5h-5.673v3.652Z" style="fill:#1d1d1b"/><path d="M522.351,241.294a5.069,5.069,0,0,1-1.867-1.026l.6-1.261a4.957,4.957,0,0,0,1.657.946,6.091,6.091,0,0,0,2.076.363,3.752,3.752,0,0,0,2.1-.476,1.473,1.473,0,0,0,.694-1.269,1.25,1.25,0,0,0-.379-.946,2.56,2.56,0,0,0-.937-.557q-.558-.2-1.577-.436a16.24,16.24,0,0,1-2.06-.615,3.4,3.4,0,0,1-1.341-.945,2.523,2.523,0,0,1-.558-1.721,2.912,2.912,0,0,1,.477-1.633,3.269,3.269,0,0,1,1.447-1.164,5.875,5.875,0,0,1,2.407-.436,7.637,7.637,0,0,1,1.972.259,5.256,5.256,0,0,1,1.665.743l-.534,1.293a5.791,5.791,0,0,0-1.519-.686,5.642,5.642,0,0,0-1.584-.235,3.488,3.488,0,0,0-2.06.5,1.536,1.536,0,0,0-.688,1.293,1.238,1.238,0,0,0,.389.945,2.694,2.694,0,0,0,.962.566,14.577,14.577,0,0,0,1.559.428,15.792,15.792,0,0,1,2.053.615,3.448,3.448,0,0,1,1.333.937,2.465,2.465,0,0,1,.557,1.7,2.883,2.883,0,0,1-.485,1.624,3.235,3.235,0,0,1-1.471,1.163,6.069,6.069,0,0,1-2.424.429A7.739,7.739,0,0,1,522.351,241.294Z" style="fill:#1d1d1b"/></svg>