<svg id="Calque_1" data-name="Calque 1" xmlns="http://www.w3.org/2000/svg" viewBox="0 0 602.39 285.792"><path d="M158.066,187.635H89.3V109.919a7.782,7.782,0,0,0-15.564,0v85.139a6.161,6.161,0,0,0,6.153,6.154h78.178a6.789,6.789,0,1,0,0-13.577Z" style="fill:#1d1d1b"/><path d="M210.359,102.137a7.791,7.791,0,0,0-7.782,7.782V193.43a7.782,7.782,0,1,0,15.564,0V109.919A7.791,7.791,0,0,0,210.359,102.137Z" style="fill:#1d1d1b"/><path d="M313.354,113.725h11.928c5.91,0,10.928.135,14.919.4a29.05,29.05,0,0,1,9.226,1.845,8.349,8.349,0,0,1,4.434,3.9,17.93,17.93,0,0,1,1.419,7.936,6.658,6.658,0,0,0,6.651,6.651h2.262a6.658,6.658,0,0,0,6.65-6.651,43,43,0,0,0-.781-8.5,20.458,20.458,0,0,0-2.9-7.187h0a19.105,19.105,0,0,0-5.626-5.5,31.988,31.988,0,0,0-8.532-3.7,66.863,66.863,0,0,0-11.884-2.111c-4.5-.439-9.833-.662-15.836-.662H313.354c-7.316,0-13.775.275-19.194.817a86.487,86.487,0,0,0-14.13,2.448,36.319,36.319,0,0,0-9.915,4.17,22.4,22.4,0,0,0-6.281,5.859,19.931,19.931,0,0,0-3.18,7.413,41.665,41.665,0,0,0-.814,8.451,58.14,58.14,0,0,0,.514,7.983,20.1,20.1,0,0,0,2.36,7.136,18.148,18.148,0,0,0,5.344,5.777,29.736,29.736,0,0,0,9,4.056,78.656,78.656,0,0,0,13.4,2.39,188.322,188.322,0,0,0,18.921.818h16.4a121.664,121.664,0,0,1,15.846.829,24.307,24.307,0,0,1,8.86,2.61,8.014,8.014,0,0,1,3.74,4.4,24.893,24.893,0,0,1,1.054,7.861,18.273,18.273,0,0,1-1.5,7.828,10.873,10.873,0,0,1-4.991,4.9,32.415,32.415,0,0,1-10.405,2.992,122.48,122.48,0,0,1-17.074.986H305.4c-5.9,0-10.909-.137-14.881-.406a28.682,28.682,0,0,1-9.192-1.878,8.4,8.4,0,0,1-4.439-3.975,18.5,18.5,0,0,1-1.423-8.082,6.658,6.658,0,0,0-6.651-6.651h-2.261a6.659,6.659,0,0,0-6.651,6.651,43.531,43.531,0,0,0,.78,8.535,20.429,20.429,0,0,0,2.9,7.217,19.879,19.879,0,0,0,5.568,5.546,30.137,30.137,0,0,0,8.528,3.781,68.806,68.806,0,0,0,11.877,2.143c4.513.46,9.843.694,15.843.694h15.9a149.364,149.364,0,0,0,17.585-.911,69.038,69.038,0,0,0,13.053-2.707,33.475,33.475,0,0,0,9.2-4.461,21.734,21.734,0,0,0,8.884-13.7,42.672,42.672,0,0,0,.812-8.5,67.77,67.77,0,0,0-.48-8.334,22.04,22.04,0,0,0-2.206-7.38,19.1,19.1,0,0,0-4.867-5.965,25.4,25.4,0,0,0-8.267-4.292,62.528,62.528,0,0,0-12.2-2.481,151.724,151.724,0,0,0-17.048-.824h-16.4c-5.274,0-9.848-.113-13.594-.336a69.6,69.6,0,0,1-9.47-1.118,23.7,23.7,0,0,1-5.93-1.886,8.679,8.679,0,0,1-3.122-2.531,8.284,8.284,0,0,1-1.45-3.506,29.87,29.87,0,0,1-.4-5.207,16.4,16.4,0,0,1,1.538-7.556,10.5,10.5,0,0,1,5.334-4.517,40.39,40.39,0,0,1,11.639-2.68A186.726,186.726,0,0,1,313.354,113.725Z" style="fill:#1d1d1b"/><path d="M506.68,180.052l-1.152.654,1.152-.654,9.918,17.484a7.267,7.267,0,0,0,6.31,3.676,7.256,7.256,0,0,0,6.307-10.843L483.8,110.506a16.549,16.549,0,0,0-28.76-.021L409.468,190.36a7.257,7.257,0,0,0,6.3,10.852h1.284a7.269,7.269,0,0,0,6.305-3.665l9.963-17.5,36.745-64.529Z" style="fill:#1d1d1b"/><path d="M222.222,73.824,233.661,65a3.69,3.69,0,0,0-4.9-5.519L217.711,68A12.675,12.675,0,0,1,222.222,73.824Z" style="fill:#1d1d1b"/><path d="M203.149,68,192.1,59.478A3.69,3.69,0,1,0,187.2,65l11.439,8.828A12.676,12.676,0,0,1,203.149,68Z" style="fill:#1d1d1b"/><path d="M214.122,66.224l-.005-19.136a3.69,3.69,0,0,0-7.38,0V66.224a12.583,12.583,0,0,1,7.385,0Z" style="fill:#1d1d1b"/><path d="M198.011,76.1H75.455a3.126,3.126,0,1,0,0,6.251H198.487a12.249,12.249,0,0,1-.476-6.251Z" style="fill:#1d1d1b"/><path d="M528.457,76.1H222.85a12.249,12.249,0,0,1-.476,6.251H528.457a3.126,3.126,0,0,0,0-6.251Z" style="fill:#1d1d1b"/><path d="M210.43,72.28a6.19,6.19,0,1,0,6.191,6.19A6.19,6.19,0,0,0,210.43,72.28Z" style="fill:#1d1d1b"/><path d="M71.206,230.248h1.616v9.906h6.125v1.407H71.206Z" style="fill:#1d1d1b"/><path d="M88.062,238.732H82.05l-1.245,2.829H79.141l5.123-11.313h1.6L91,241.561h-1.7Zm-.565-1.293L85.056,231.9l-2.44,5.543Z" style="fill:#1d1d1b"/><path d="M93.517,241.294a5.061,5.061,0,0,1-1.867-1.026l.6-1.261a4.961,4.961,0,0,0,1.656.946,6.1,6.1,0,0,0,2.078.363,3.745,3.745,0,0,0,2.1-.476,1.472,1.472,0,0,0,.7-1.269,1.254,1.254,0,0,0-.379-.946,2.547,2.547,0,0,0-.938-.557q-.558-.2-1.576-.436a16.262,16.262,0,0,1-2.061-.615,3.4,3.4,0,0,1-1.34-.945,2.523,2.523,0,0,1-.558-1.721,2.9,2.9,0,0,1,.477-1.633,3.271,3.271,0,0,1,1.446-1.164,5.88,5.88,0,0,1,2.408-.436,7.629,7.629,0,0,1,1.971.259,5.235,5.235,0,0,1,1.665.743l-.533,1.293a5.806,5.806,0,0,0-1.519-.686,5.647,5.647,0,0,0-1.584-.235,3.491,3.491,0,0,0-2.061.5,1.537,1.537,0,0,0-.687,1.293,1.237,1.237,0,0,0,.388.945,2.7,2.7,0,0,0,.962.566,14.781,14.781,0,0,0,1.559.428,15.744,15.744,0,0,1,2.053.615,3.444,3.444,0,0,1,1.334.937,2.47,2.47,0,0,1,.557,1.7,2.883,2.883,0,0,1-.485,1.624,3.24,3.24,0,0,1-1.471,1.163,6.07,6.07,0,0,1-2.423.429A7.741,7.741,0,0,1,93.517,241.294Z" style="fill:#1d1d1b"/><path d="M110.93,240.154v1.407h-8.209V230.248h7.984v1.406h-6.368v3.474h5.673V236.5h-5.673v3.652Z" style="fill:#1d1d1b"/><path d="M121.112,241.561l-2.44-3.475c-.3.022-.539.032-.711.032h-2.8v3.443h-1.616V230.248h4.413a5.241,5.241,0,0,1,3.458,1.05,3.563,3.563,0,0,1,1.261,2.893,3.782,3.782,0,0,1-.647,2.23,3.652,3.652,0,0,1-1.842,1.341l2.682,3.8Zm-.857-5.479a2.306,2.306,0,0,0,.809-1.891,2.282,2.282,0,0,0-.809-1.883,3.646,3.646,0,0,0-2.343-.654h-2.748v5.091h2.748A3.611,3.611,0,0,0,120.255,236.082Z" style="fill:#1d1d1b"/><path d="M129.645,230.248h1.616v11.313h-1.616Z" style="fill:#1d1d1b"/><path d="M136.676,240.938a5.546,5.546,0,0,1-2.158-2.076,5.97,5.97,0,0,1,0-5.915,5.544,5.544,0,0,1,2.158-2.078,6.685,6.685,0,0,1,6.157,0,5.522,5.522,0,0,1,2.15,2.069,6.063,6.063,0,0,1,0,5.932,5.519,5.519,0,0,1-2.15,2.068,6.677,6.677,0,0,1-6.157,0ZM142,239.686a4.147,4.147,0,0,0,1.567-1.56,4.588,4.588,0,0,0,0-4.444,4.147,4.147,0,0,0-1.567-1.56,4.448,4.448,0,0,0-2.239-.566,4.532,4.532,0,0,0-2.254.566,4.108,4.108,0,0,0-1.584,1.56,4.588,4.588,0,0,0,0,4.444,4.108,4.108,0,0,0,1.584,1.56,4.531,4.531,0,0,0,2.254.565A4.448,4.448,0,0,0,142,239.686Z" style="fill:#1d1d1b"/><path d="M157.96,230.248v11.313h-1.325l-6.788-8.437v8.437h-1.616V230.248h1.325l6.788,8.436v-8.436Z" style="fill:#1d1d1b"/><path d="M161.354,230.248h1.616v11.313h-1.616Z" style="fill:#1d1d1b"/><path d="M167.2,241.294a5.061,5.061,0,0,1-1.867-1.026l.6-1.261a4.961,4.961,0,0,0,1.656.946,6.1,6.1,0,0,0,2.077.363,3.746,3.746,0,0,0,2.1-.476,1.472,1.472,0,0,0,.695-1.269,1.254,1.254,0,0,0-.379-.946,2.556,2.556,0,0,0-.938-.557q-.558-.2-1.576-.436a16.262,16.262,0,0,1-2.061-.615,3.4,3.4,0,0,1-1.34-.945,2.523,2.523,0,0,1-.558-1.721,2.9,2.9,0,0,1,.477-1.633,3.271,3.271,0,0,1,1.446-1.164,5.88,5.88,0,0,1,2.408-.436,7.629,7.629,0,0,1,1.971.259,5.235,5.235,0,0,1,1.665.743l-.533,1.293a5.806,5.806,0,0,0-1.519-.686,5.647,5.647,0,0,0-1.584-.235,3.491,3.491,0,0,0-2.061.5,1.537,1.537,0,0,0-.687,1.293,1.237,1.237,0,0,0,.388.945,2.7,2.7,0,0,0,.962.566,14.781,14.781,0,0,0,1.559.428,15.744,15.744,0,0,1,2.053.615,3.444,3.444,0,0,1,1.334.937,2.47,2.47,0,0,1,.557,1.7,2.883,2.883,0,0,1-.485,1.624,3.24,3.24,0,0,1-1.471,1.163,6.072,6.072,0,0,1-2.424.429A7.739,7.739,0,0,1,167.2,241.294Z" style="fill:#1d1d1b"/><path d="M183.608,238.732H177.6l-1.245,2.829h-1.664l5.123-11.313h1.6l5.14,11.313h-1.7Zm-.566-1.293L180.6,231.9l-2.44,5.543Z" style="fill:#1d1d1b"/><path d="M189.911,231.654h-3.879v-1.406h9.358v1.406h-3.879v9.907h-1.6Z" style="fill:#1d1d1b"/><path d="M197.152,230.248h1.616v11.313h-1.616Z" style="fill:#1d1d1b"/><path d="M204.182,240.938a5.559,5.559,0,0,1-2.158-2.076,5.97,5.97,0,0,1,0-5.915,5.557,5.557,0,0,1,2.158-2.078,6.685,6.685,0,0,1,6.157,0,5.515,5.515,0,0,1,2.15,2.069,6.063,6.063,0,0,1,0,5.932,5.513,5.513,0,0,1-2.15,2.068,6.677,6.677,0,0,1-6.157,0Zm5.325-1.252a4.15,4.15,0,0,0,1.568-1.56,4.595,4.595,0,0,0,0-4.444,4.15,4.15,0,0,0-1.568-1.56,4.446,4.446,0,0,0-2.239-.566,4.534,4.534,0,0,0-2.254.566,4.115,4.115,0,0,0-1.584,1.56,4.595,4.595,0,0,0,0,4.444,4.115,4.115,0,0,0,1.584,1.56,4.534,4.534,0,0,0,2.254.565A4.445,4.445,0,0,0,209.507,239.686Z" style="fill:#1d1d1b"/><path d="M225.466,230.248v11.313h-1.325l-6.788-8.437v8.437h-1.616V230.248h1.325l6.788,8.436v-8.436Z" style="fill:#1d1d1b"/><path d="M240.415,238.732H234.4l-1.245,2.829h-1.665l5.123-11.313h1.6l5.139,11.313h-1.7Zm-.565-1.293-2.441-5.543-2.44,5.543Z" style="fill:#1d1d1b"/><path d="M254.767,230.248v11.313h-1.325l-6.788-8.437v8.437h-1.616V230.248h1.325l6.788,8.436v-8.436Z" style="fill:#1d1d1b"/><path d="M258.161,230.248h4.768a6.879,6.879,0,0,1,3.183.711,5.221,5.221,0,0,1,2.158,2,6.053,6.053,0,0,1,0,5.9,5.23,5.23,0,0,1-2.158,2,6.891,6.891,0,0,1-3.183.711h-4.768Zm4.67,9.906a5.232,5.232,0,0,0,2.417-.533,3.857,3.857,0,0,0,1.608-1.5,4.652,4.652,0,0,0,0-4.444,3.863,3.863,0,0,0-1.608-1.495,5.244,5.244,0,0,0-2.417-.533h-3.054v8.5Z" style="fill:#1d1d1b"/><path d="M276.69,241.294a5.061,5.061,0,0,1-1.867-1.026l.6-1.261a4.961,4.961,0,0,0,1.656.946,6.1,6.1,0,0,0,2.078.363,3.745,3.745,0,0,0,2.1-.476,1.472,1.472,0,0,0,.695-1.269,1.254,1.254,0,0,0-.379-.946,2.547,2.547,0,0,0-.938-.557q-.558-.2-1.576-.436a16.262,16.262,0,0,1-2.061-.615,3.4,3.4,0,0,1-1.34-.945,2.523,2.523,0,0,1-.558-1.721,2.9,2.9,0,0,1,.477-1.633,3.271,3.271,0,0,1,1.446-1.164,5.884,5.884,0,0,1,2.408-.436,7.629,7.629,0,0,1,1.971.259,5.235,5.235,0,0,1,1.665.743l-.533,1.293a5.806,5.806,0,0,0-1.519-.686,5.647,5.647,0,0,0-1.584-.235,3.491,3.491,0,0,0-2.061.5,1.537,1.537,0,0,0-.687,1.293,1.237,1.237,0,0,0,.388.945,2.7,2.7,0,0,0,.962.566,14.781,14.781,0,0,0,1.559.428,15.744,15.744,0,0,1,2.053.615,3.444,3.444,0,0,1,1.334.937,2.47,2.47,0,0,1,.557,1.7,2.883,2.883,0,0,1-.485,1.624,3.24,3.24,0,0,1-1.471,1.163,6.07,6.07,0,0,1-2.423.429A7.741,7.741,0,0,1,276.69,241.294Z" style="fill:#1d1d1b"/><path d="M293.765,231.3a3.951,3.951,0,0,1,0,5.786,5.245,5.245,0,0,1-3.459,1.05h-2.8v3.427h-1.616V230.248h4.412A5.245,5.245,0,0,1,293.765,231.3Zm-1.164,4.776a2.6,2.6,0,0,0,0-3.766,3.651,3.651,0,0,0-2.344-.654H287.51v5.074h2.747A3.651,3.651,0,0,0,292.6,236.074Z" style="fill:#1d1d1b"/><path d="M305.61,240.154v1.407H297.4V230.248h7.985v1.406h-6.369v3.474h5.673V236.5h-5.673v3.652Z" style="fill:#1d1d1b"/><path d="M310.177,240.938a5.525,5.525,0,0,1-2.142-2.068,6.056,6.056,0,0,1,0-5.932,5.519,5.519,0,0,1,2.149-2.069,6.312,6.312,0,0,1,3.072-.751,6.392,6.392,0,0,1,2.423.445,4.953,4.953,0,0,1,1.875,1.317L316.5,232.9a4.217,4.217,0,0,0-3.184-1.342,4.609,4.609,0,0,0-2.278.566,4.082,4.082,0,0,0-1.592,1.56,4.588,4.588,0,0,0,0,4.444,4.082,4.082,0,0,0,1.592,1.56,4.609,4.609,0,0,0,2.278.565,4.223,4.223,0,0,0,3.184-1.357l1.05,1.018a5.017,5.017,0,0,1-1.883,1.325,6.356,6.356,0,0,1-2.432.453A6.243,6.243,0,0,1,310.177,240.938Z" style="fill:#1d1d1b"/><path d="M321.983,231.654H318.1v-1.406h9.358v1.406h-3.879v9.907h-1.6Z" style="fill:#1d1d1b"/><path d="M336.786,241.561l-2.441-3.475c-.3.022-.538.032-.711.032h-2.8v3.443h-1.617V230.248h4.412a5.242,5.242,0,0,1,3.459,1.05,3.563,3.563,0,0,1,1.261,2.893,3.782,3.782,0,0,1-.646,2.23,3.655,3.655,0,0,1-1.843,1.341l2.683,3.8Zm-.857-5.479a2.306,2.306,0,0,0,.808-1.891,2.281,2.281,0,0,0-.808-1.883,3.646,3.646,0,0,0-2.343-.654h-2.747v5.091h2.747A3.611,3.611,0,0,0,335.929,236.082Z" style="fill:#1d1d1b"/><path d="M342.992,240.938a5.559,5.559,0,0,1-2.158-2.076,5.97,5.97,0,0,1,0-5.915,5.557,5.557,0,0,1,2.158-2.078,6.687,6.687,0,0,1,6.158,0,5.526,5.526,0,0,1,2.149,2.069,6.063,6.063,0,0,1,0,5.932,5.523,5.523,0,0,1-2.149,2.068,6.679,6.679,0,0,1-6.158,0Zm5.325-1.252a4.157,4.157,0,0,0,1.568-1.56,4.588,4.588,0,0,0,0-4.444,4.157,4.157,0,0,0-1.568-1.56,4.446,4.446,0,0,0-2.239-.566,4.528,4.528,0,0,0-2.253.566,4.1,4.1,0,0,0-1.584,1.56,4.588,4.588,0,0,0,0,4.444,4.1,4.1,0,0,0,1.584,1.56,4.527,4.527,0,0,0,2.253.565A4.445,4.445,0,0,0,348.317,239.686Z" style="fill:#1d1d1b"/><path d="M355.38,241.294a5.048,5.048,0,0,1-1.866-1.026l.6-1.261a4.972,4.972,0,0,0,1.656.946,6.1,6.1,0,0,0,2.078.363,3.742,3.742,0,0,0,2.1-.476,1.471,1.471,0,0,0,.7-1.269,1.255,1.255,0,0,0-.38-.946,2.547,2.547,0,0,0-.938-.557q-.558-.2-1.575-.436a16.283,16.283,0,0,1-2.062-.615,3.406,3.406,0,0,1-1.34-.945,2.523,2.523,0,0,1-.558-1.721,2.9,2.9,0,0,1,.477-1.633,3.277,3.277,0,0,1,1.446-1.164,5.882,5.882,0,0,1,2.409-.436,7.628,7.628,0,0,1,1.97.259,5.225,5.225,0,0,1,1.665.743l-.532,1.293a5.827,5.827,0,0,0-1.52-.686,5.64,5.64,0,0,0-1.583-.235,3.5,3.5,0,0,0-2.062.5,1.536,1.536,0,0,0-.686,1.293,1.236,1.236,0,0,0,.387.945,2.7,2.7,0,0,0,.962.566,14.85,14.85,0,0,0,1.559.428,15.744,15.744,0,0,1,2.053.615,3.437,3.437,0,0,1,1.334.937,2.471,2.471,0,0,1,.558,1.7,2.891,2.891,0,0,1-.485,1.624,3.251,3.251,0,0,1-1.471,1.163,6.079,6.079,0,0,1-2.424.429A7.741,7.741,0,0,1,355.38,241.294Z" style="fill:#1d1d1b"/><path d="M366.579,240.938a5.536,5.536,0,0,1-2.141-2.068,6.049,6.049,0,0,1,0-5.932,5.526,5.526,0,0,1,2.149-2.069,6.3,6.3,0,0,1,3.071-.751,6.4,6.4,0,0,1,2.425.445,4.957,4.957,0,0,1,1.874,1.317l-1.051,1.018a4.216,4.216,0,0,0-3.184-1.342,4.612,4.612,0,0,0-2.278.566,4.1,4.1,0,0,0-1.592,1.56,4.588,4.588,0,0,0,0,4.444,4.1,4.1,0,0,0,1.592,1.56,4.611,4.611,0,0,0,2.278.565,4.223,4.223,0,0,0,3.184-1.357l1.051,1.018a5.009,5.009,0,0,1-1.883,1.325,6.363,6.363,0,0,1-2.432.453A6.244,6.244,0,0,1,366.579,240.938Z" style="fill:#1d1d1b"/><path d="M378.046,240.938a5.559,5.559,0,0,1-2.158-2.076,5.977,5.977,0,0,1,0-5.915,5.557,5.557,0,0,1,2.158-2.078,6.687,6.687,0,0,1,6.158,0,5.519,5.519,0,0,1,2.149,2.069,6.063,6.063,0,0,1,0,5.932,5.517,5.517,0,0,1-2.149,2.068,6.679,6.679,0,0,1-6.158,0Zm5.325-1.252a4.15,4.15,0,0,0,1.568-1.56,4.588,4.588,0,0,0,0-4.444,4.15,4.15,0,0,0-1.568-1.56,4.443,4.443,0,0,0-2.239-.566,4.528,4.528,0,0,0-2.253.566,4.108,4.108,0,0,0-1.584,1.56,4.588,4.588,0,0,0,0,4.444,4.108,4.108,0,0,0,1.584,1.56,4.527,4.527,0,0,0,2.253.565A4.442,4.442,0,0,0,383.371,239.686Z" style="fill:#1d1d1b"/><path d="M397.472,231.3a3.949,3.949,0,0,1,0,5.786,5.241,5.241,0,0,1-3.458,1.05h-2.8v3.427H389.6V230.248h4.413A5.241,5.241,0,0,1,397.472,231.3Zm-1.164,4.776a2.6,2.6,0,0,0,0-3.766,3.645,3.645,0,0,0-2.342-.654h-2.748v5.074h2.748A3.645,3.645,0,0,0,396.308,236.074Z" style="fill:#1d1d1b"/><path d="M405.439,237.649v3.912h-1.6v-3.944l-4.492-7.369h1.729l3.621,5.963,3.635-5.963h1.6Z" style="fill:#1d1d1b"/><path d="M417.932,240.938a5.563,5.563,0,0,1-2.157-2.076,5.97,5.97,0,0,1,0-5.915,5.561,5.561,0,0,1,2.157-2.078,6.687,6.687,0,0,1,6.158,0,5.512,5.512,0,0,1,2.149,2.069,6.056,6.056,0,0,1,0,5.932,5.51,5.51,0,0,1-2.149,2.068,6.679,6.679,0,0,1-6.158,0Zm5.325-1.252a4.152,4.152,0,0,0,1.569-1.56,4.595,4.595,0,0,0,0-4.444,4.152,4.152,0,0,0-1.569-1.56,4.439,4.439,0,0,0-2.238-.566,4.534,4.534,0,0,0-2.254.566,4.108,4.108,0,0,0-1.584,1.56,4.595,4.595,0,0,0,0,4.444,4.108,4.108,0,0,0,1.584,1.56,4.534,4.534,0,0,0,2.254.565A4.439,4.439,0,0,0,423.257,239.686Z" style="fill:#1d1d1b"/><path d="M431.1,231.654V235.6h5.674v1.39H431.1v4.574h-1.615V230.248h7.983v1.406Z" style="fill:#1d1d1b"/><path d="M451.305,238.732h-6.011l-1.245,2.829h-1.665l5.124-11.313h1.6l5.139,11.313h-1.7Zm-.565-1.293L448.3,231.9l-2.44,5.543Z" style="fill:#1d1d1b"/><path d="M457.762,240.938a5.536,5.536,0,0,1-2.141-2.068,6.049,6.049,0,0,1,0-5.932,5.526,5.526,0,0,1,2.149-2.069,6.3,6.3,0,0,1,3.071-.751,6.4,6.4,0,0,1,2.425.445,4.957,4.957,0,0,1,1.874,1.317l-1.051,1.018a4.216,4.216,0,0,0-3.184-1.342,4.612,4.612,0,0,0-2.278.566,4.1,4.1,0,0,0-1.592,1.56,4.588,4.588,0,0,0,0,4.444,4.1,4.1,0,0,0,1.592,1.56,4.611,4.611,0,0,0,2.278.565,4.223,4.223,0,0,0,3.184-1.357l1.051,1.018a5.009,5.009,0,0,1-1.883,1.325,6.363,6.363,0,0,1-2.432.453A6.244,6.244,0,0,1,457.762,240.938Z" style="fill:#1d1d1b"/><path d="M469.568,231.654h-3.879v-1.406h9.357v1.406h-3.878v9.907h-1.6Z" style="fill:#1d1d1b"/><path d="M476.809,230.248h1.615v11.313h-1.615Z" style="fill:#1d1d1b"/><path d="M491.547,230.248v11.313h-1.325l-6.787-8.437v8.437h-1.617V230.248h1.326l6.788,8.436v-8.436Z" style="fill:#1d1d1b"/><path d="M494.941,230.248h1.617v11.313h-1.617Z" style="fill:#1d1d1b"/><path d="M499.952,230.248h4.767a6.883,6.883,0,0,1,3.184.711,5.221,5.221,0,0,1,2.158,2,6.053,6.053,0,0,1,0,5.9,5.23,5.23,0,0,1-2.158,2,6.9,6.9,0,0,1-3.184.711h-4.767Zm4.67,9.906a5.237,5.237,0,0,0,2.417-.533,3.854,3.854,0,0,0,1.607-1.5,4.652,4.652,0,0,0,0-4.444,3.861,3.861,0,0,0-1.607-1.495,5.25,5.25,0,0,0-2.417-.533h-3.055v8.5Z" style="fill:#1d1d1b"/><path d="M521.511,240.154v1.407H513.3V230.248h7.983v1.406h-6.368v3.474h5.674V236.5h-5.674v3.652Z" style="fill:#1d1d1b"/><path d="M524.961,241.294a5.069,5.069,0,0,1-1.867-1.026l.6-1.261a4.961,4.961,0,0,0,1.656.946,6.1,6.1,0,0,0,2.077.363,3.75,3.75,0,0,0,2.1-.476,1.473,1.473,0,0,0,.694-1.269,1.253,1.253,0,0,0-.378-.946,2.556,2.556,0,0,0-.938-.557q-.558-.2-1.577-.436a16.24,16.24,0,0,1-2.06-.615,3.392,3.392,0,0,1-1.34-.945,2.524,2.524,0,0,1-.559-1.721,2.905,2.905,0,0,1,.478-1.633,3.271,3.271,0,0,1,1.446-1.164,5.879,5.879,0,0,1,2.407-.436,7.631,7.631,0,0,1,1.972.259,5.245,5.245,0,0,1,1.665.743l-.534,1.293a5.777,5.777,0,0,0-1.519-.686,5.636,5.636,0,0,0-1.584-.235,3.488,3.488,0,0,0-2.06.5,1.535,1.535,0,0,0-.687,1.293,1.237,1.237,0,0,0,.388.945,2.694,2.694,0,0,0,.962.566,14.712,14.712,0,0,0,1.559.428,15.792,15.792,0,0,1,2.053.615,3.448,3.448,0,0,1,1.333.937,2.465,2.465,0,0,1,.557,1.7,2.882,2.882,0,0,1-.484,1.624,3.246,3.246,0,0,1-1.471,1.163,6.076,6.076,0,0,1-2.424.429A7.745,7.745,0,0,1,524.961,241.294Z" style="fill:#1d1d1b"/></svg>